<svg width="16" height="20" viewBox="0 0 16 20" fill="none" xmlns="http://www.w3.org/2000/svg">
  <path d="M14 20H2C0.89543 20 0 19.1046 0 18V2C0 0.895432 0.89543 1.72266e-06 2 1.72266e-06H3V2H5V4H3V6H5V8H3V15H7V10H5V8H7V6H5V4H7V2H5V1.72266e-06H9C9.00896 -0.00116024 9.01804 -0.00116024 9.027 1.72266e-06H9.033C9.04244 0.00295978 9.05216 0.00496971 9.062 0.00600172C9.15019 0.0116549 9.23726 0.0287999 9.321 0.0570017H9.336H9.351H9.363C9.38145 0.0699275 9.39884 0.0843066 9.415 0.100002C9.52394 0.148425 9.62321 0.216186 9.708 0.300002L15.708 6.3C15.7918 6.38479 15.8596 6.48406 15.908 6.593C15.917 6.615 15.924 6.636 15.931 6.659L15.941 6.687C15.9689 6.77039 15.9854 6.85718 15.99 6.945C15.9909 6.95496 15.9932 6.96474 15.997 6.974V6.98C15.9986 6.98656 15.9996 6.99325 16 7V18C16 18.5304 15.7893 19.0391 15.4142 19.4142C15.0391 19.7893 14.5304 20 14 20ZM9 2V7H14L9 2ZM6 14H4V12H6V14Z" fill="#A7AFBD"/>
</svg>
