<svg width="16" height="20" viewBox="0 0 16 20" fill="none" xmlns="http://www.w3.org/2000/svg">
  <path d="M14 20H2C0.89543 20 0 19.1046 0 18V2C0 0.89543 0.89543 -1.84693e-07 2 -1.84693e-07H9C9.00896 -0.00116215 9.01804 -0.00116215 9.027 -1.84693e-07H9.033C9.04244 0.00295788 9.05216 0.0049678 9.062 0.00599982C9.15019 0.011653 9.23726 0.028798 9.321 0.0569998H9.336H9.351H9.363C9.38145 0.0699256 9.39884 0.0843047 9.415 0.0999998C9.52394 0.148423 9.62321 0.216184 9.708 0.3L15.708 6.3C15.7918 6.38479 15.8596 6.48406 15.908 6.593C15.917 6.615 15.924 6.636 15.931 6.659L15.941 6.687C15.9689 6.77039 15.9854 6.85718 15.99 6.945C15.9909 6.95496 15.9932 6.96474 15.997 6.974V6.98C15.9986 6.98655 15.9996 6.99325 16 7V18C16 18.5304 15.7893 19.0391 15.4142 19.4142C15.0391 19.7893 14.5304 20 14 20ZM10.027 15.4C10.0191 15.6965 10.088 15.99 10.227 16.252C10.359 16.4871 10.5554 16.6796 10.793 16.807C11.0395 16.9369 11.3144 17.0032 11.593 17C11.9679 17.0194 12.3354 16.8913 12.617 16.643C12.8795 16.3812 13.0187 16.0203 13 15.65C13.0137 15.3071 12.9076 14.9702 12.7 14.697C12.4393 14.4068 12.1079 14.1891 11.738 14.065C11.5428 13.9869 11.3635 13.8737 11.209 13.731C11.1143 13.6334 11.0609 13.503 11.06 13.367C11.0528 13.2191 11.1005 13.0738 11.194 12.959C11.2888 12.8542 11.4258 12.7976 11.567 12.805C11.7188 12.7966 11.8647 12.8645 11.956 12.986C12.0568 13.1388 12.1049 13.3203 12.093 13.503H13C13.0048 13.2319 12.9441 12.9636 12.823 12.721C12.7127 12.4983 12.5386 12.3135 12.323 12.19C11.7489 11.8797 11.0434 11.9527 10.545 12.374C10.2748 12.629 10.1288 12.9888 10.145 13.36C10.1396 13.6799 10.2456 13.9917 10.445 14.242C10.7136 14.5358 11.0505 14.7587 11.426 14.891C11.6158 14.9626 11.79 15.0702 11.939 15.208C12.0425 15.3334 12.0937 15.4938 12.082 15.656C12.082 16.017 11.921 16.2 11.603 16.2C11.4158 16.2186 11.2307 16.1482 11.103 16.01C10.9862 15.8283 10.9325 15.6133 10.95 15.398L10.027 15.4ZM6.584 15.4C6.57609 15.6965 6.64499 15.99 6.784 16.252C6.91602 16.4871 7.11237 16.6796 7.35 16.807C7.59654 16.9367 7.87146 17.003 8.15 17C8.52487 17.0194 8.89245 16.8913 9.174 16.643C9.43398 16.38 9.57057 16.0193 9.55 15.65C9.56366 15.3071 9.45759 14.9702 9.25 14.697C8.98928 14.4068 8.65786 14.1891 8.288 14.065C8.09275 13.9869 7.91346 13.8737 7.759 13.731C7.66466 13.6332 7.61134 13.5029 7.61 13.367C7.6028 13.2191 7.65053 13.0738 7.744 12.959C7.83907 12.8539 7.97649 12.7973 8.118 12.805C8.26976 12.7966 8.4157 12.8645 8.507 12.986C8.60812 13.1387 8.65625 13.3203 8.644 13.503H9.557C9.56119 13.2319 9.50051 12.9638 9.38 12.721C9.26928 12.4986 9.09533 12.3139 8.88 12.19C8.65314 12.0612 8.39586 11.9955 8.135 12C7.75537 11.9871 7.38538 12.1211 7.102 12.374C6.83179 12.629 6.6858 12.9888 6.702 13.36C6.69624 13.68 6.80234 13.9919 7.002 14.242C7.26999 14.536 7.6067 14.759 7.982 14.891C8.17211 14.9627 8.34663 15.0703 8.496 15.208C8.59952 15.3334 8.65074 15.4938 8.639 15.656C8.639 16.017 8.478 16.2 8.159 16.2C7.97176 16.2186 7.78666 16.1482 7.659 16.01C7.54054 15.8296 7.48467 15.6153 7.5 15.4H6.584ZM4.6 12C4.14278 11.9801 3.70432 12.1832 3.424 12.545C3.11486 12.9982 2.96566 13.5415 3 14.089V14.908C2.9663 15.4554 3.10932 15.9991 3.408 16.459C3.68871 16.8215 4.12912 17.0236 4.587 17C5.0081 17.0246 5.41986 16.8694 5.72 16.573C5.98969 16.2524 6.14113 15.8489 6.149 15.43V15.483V15.41V15.4C6.149 15.385 6.149 15.371 6.149 15.356V15.31H5.241C5.25219 15.5499 5.19829 15.7883 5.085 16C4.95843 16.1396 4.77211 16.2093 4.585 16.187C4.3739 16.2046 4.17154 16.0991 4.065 15.916C3.94178 15.5978 3.89088 15.2563 3.916 14.916V14C3.90068 13.69 3.95608 13.3805 4.078 13.095C4.18209 12.9087 4.38523 12.8001 4.598 12.817C4.78628 12.7951 4.97278 12.8705 5.093 13.017C5.20475 13.2355 5.25618 13.4799 5.242 13.725H6.16C6.15713 13.2628 6.00294 12.8143 5.721 12.448C5.43372 12.1377 5.02202 11.9732 4.6 12ZM9 2V7H14L9 2Z" fill="#A7AFBD"/>
</svg>
