<svg width="16" height="20" viewBox="0 0 16 20" fill="none" xmlns="http://www.w3.org/2000/svg">
  <path d="M14 20H2C0.89543 20 0 19.1046 0 18V1.99999C0 0.895432 0.89543 -5.26997e-06 2 -5.26997e-06H9C9.26539 -0.000941379 9.52007 0.104605 9.707 0.293001L15.707 6.293C15.8954 6.47993 16.0009 6.73461 16 6.99999V18C16 19.1046 15.1046 20 14 20ZM2 2V18H12.586L10.02 15.434C9.41015 15.8017 8.7121 15.9972 8 16C6.1612 16.0199 4.54049 14.7967 4.05545 13.0229C3.57041 11.2491 4.34318 9.37142 5.93625 8.45287C7.52931 7.53433 9.54153 7.80625 10.8337 9.11468C12.1258 10.4231 12.3724 12.4386 11.434 14.02L14 16.588V7.414L8.586 2H2ZM8 10C6.89543 10 6 10.8954 6 12C6 13.1046 6.89543 14 8 14C9.10457 14 10 13.1046 10 12C10 10.8954 9.10457 10 8 10Z" fill="#A7AFBD"/>
</svg>
