<svg width="16" height="20" viewBox="0 0 16 20" fill="none" xmlns="http://www.w3.org/2000/svg">
  <path d="M14 20H2C0.89543 20 0 19.1046 0 18V2C0 0.89543 0.89543 -1.84693e-07 2 -1.84693e-07H9C9.00896 -0.00116215 9.01804 -0.00116215 9.027 -1.84693e-07H9.033C9.04244 0.00295788 9.05216 0.0049678 9.062 0.00599982C9.15019 0.011653 9.23726 0.028798 9.321 0.0569998H9.336H9.351H9.363C9.38145 0.0699256 9.39884 0.0843047 9.415 0.0999998C9.52394 0.148423 9.62321 0.216184 9.708 0.3L15.708 6.3C15.7918 6.38479 15.8596 6.48406 15.908 6.593C15.917 6.615 15.924 6.636 15.931 6.659L15.941 6.687C15.9689 6.77039 15.9854 6.85718 15.99 6.945C15.9909 6.95496 15.9932 6.96474 15.997 6.974V6.98C15.9986 6.98655 15.9996 6.99325 16 7V18C16 18.5304 15.7893 19.0391 15.4142 19.4142C15.0391 19.7893 14.5304 20 14 20ZM12.261 13V17H14.5V16.33H13.074V13H12.261ZM10.861 14.258L10.787 15.917V17H11.602V13H10.545L9.788 15.894L9.028 13H7.967V17H8.78V15.917L8.7 14.25L9.5 17H10.054L10.861 14.258ZM4.712 13V13.673H5.69V17H6.505V13.673H7.5V13H4.712ZM2.312 15.289H3.512V17H4.322V13H3.512V14.618H2.312V13H1.5V17H2.312V15.289ZM9 2V7H14L9 2Z" fill="#A7AFBD"/>
</svg>
