<svg width="16" height="20" viewBox="0 0 16 20" fill="none" xmlns="http://www.w3.org/2000/svg">
  <path d="M14 20H2C0.89543 20 0 19.1046 0 18V2C0 0.89543 0.89543 -1.84693e-07 2 -1.84693e-07H9C9.00896 -0.00116215 9.01804 -0.00116215 9.027 -1.84693e-07H9.033C9.04244 0.00295788 9.05216 0.0049678 9.062 0.00599982C9.15019 0.011653 9.23726 0.028798 9.321 0.0569998H9.336H9.351H9.363C9.38145 0.0699256 9.39884 0.0843047 9.415 0.0999998C9.52394 0.148423 9.62321 0.216184 9.708 0.3L15.708 6.3C15.7918 6.38479 15.8596 6.48406 15.908 6.593C15.917 6.615 15.924 6.636 15.931 6.659L15.941 6.687C15.9689 6.77039 15.9854 6.85718 15.99 6.945C15.9909 6.95496 15.9932 6.96474 15.997 6.974V6.98C15.9986 6.98655 15.9996 6.99325 16 7V18C16 18.5304 15.7893 19.0391 15.4142 19.4142C15.0391 19.7893 14.5304 20 14 20ZM8.116 15.4C8.11021 15.6963 8.17899 15.9892 8.316 16.252C8.44295 16.4854 8.63371 16.6779 8.866 16.807C9.10273 16.9359 9.36844 17.0024 9.638 17C10.0037 17.0187 10.3618 16.8902 10.632 16.643C10.8868 16.3772 11.0201 16.0177 11 15.65C11.0107 15.3085 10.9049 14.9735 10.7 14.7C10.4501 14.4113 10.1287 14.1933 9.768 14.068C9.57752 13.9894 9.40324 13.8761 9.254 13.734C9.1618 13.6351 9.11006 13.5052 9.109 13.37C9.10068 13.2226 9.14696 13.0774 9.239 12.962C9.32956 12.8577 9.46307 12.8009 9.601 12.808C9.74971 12.7995 9.89241 12.8678 9.979 12.989C10.0768 13.143 10.123 13.324 10.111 13.506H11C11.0043 13.2355 10.9454 12.9677 10.828 12.724C10.7222 12.5027 10.5531 12.3179 10.342 12.193C10.1236 12.0636 9.87382 11.9968 9.62 12C9.25048 11.9884 8.89125 12.1228 8.62 12.374C8.35505 12.632 8.21249 12.9905 8.228 13.36C8.22153 13.6784 8.32382 13.9895 8.518 14.242C8.77594 14.5342 9.10286 14.7573 9.469 14.891C9.65483 14.9629 9.82472 15.0706 9.969 15.208C10.07 15.3345 10.1196 15.4945 10.108 15.656C10.108 16.017 9.951 16.2 9.643 16.2C9.46102 16.2166 9.28191 16.1461 9.16 16.01C9.04685 15.8269 8.995 15.6125 9.012 15.398L8.116 15.4ZM5 15.5C4.97845 15.8947 5.09711 16.2843 5.335 16.6C5.56974 16.8708 5.91611 17.0183 6.274 17C6.62966 17.0077 6.96877 16.85 7.192 16.573C7.44178 16.2482 7.56796 15.8452 7.548 15.436V12.067H6.661V15.389C6.661 15.917 6.531 16.189 6.274 16.189C6.017 16.189 5.891 15.957 5.891 15.5H5ZM9 2V7H14L9 2Z" fill="#A7AFBD"/>
</svg>
