<svg width="16" height="20" viewBox="0 0 16 20" fill="none" xmlns="http://www.w3.org/2000/svg">
  <path d="M14 20H2C0.89543 20 0 19.1046 0 18V2C0 0.895432 0.89543 1.72266e-06 2 1.72266e-06H9C9.00896 -0.00116024 9.01804 -0.00116024 9.027 1.72266e-06H9.033C9.04244 0.00295978 9.05216 0.00496971 9.062 0.00600172C9.15019 0.0116549 9.23726 0.0287999 9.321 0.0570017H9.336H9.351H9.363C9.38145 0.0699275 9.39884 0.0843066 9.415 0.100002C9.52394 0.148425 9.62321 0.216186 9.708 0.300002L15.708 6.3C15.7918 6.38479 15.8596 6.48406 15.908 6.593C15.917 6.615 15.924 6.636 15.931 6.659L15.941 6.687C15.9689 6.77039 15.9854 6.85718 15.99 6.945C15.9909 6.95496 15.9932 6.96474 15.997 6.974V6.98C15.9986 6.98656 15.9996 6.99325 16 7V18C16 18.5304 15.7893 19.0391 15.4142 19.4142C15.0391 19.7893 14.5304 20 14 20ZM10.424 12V17H11.364V14.96H12.824V14.122H11.364V12.841H13V12H10.424ZM6.724 12V17H7.93C8.43593 17.0249 8.92583 16.8189 9.262 16.44C9.6069 15.9999 9.77967 15.4492 9.748 14.891V14.081C9.77117 13.5286 9.59356 12.9866 9.248 12.555C8.92263 12.1846 8.44761 11.9807 7.955 12H6.724ZM3 12V17H3.94V15.241H4.566C4.98402 15.2641 5.39232 15.1094 5.69 14.815C5.97408 14.4974 6.12141 14.0806 6.1 13.655C6.11856 13.2192 5.97135 12.7926 5.688 12.461C5.40772 12.1502 5.00309 11.9811 4.585 12H3ZM9 2V7H14L9 2ZM7.946 16.162H7.664V12.841H8.006C8.24885 12.8267 8.48236 12.9367 8.626 13.133C8.77261 13.4363 8.83544 13.7733 8.808 14.109V14.978C8.82996 15.2978 8.7606 15.6172 8.608 15.899C8.4441 16.0903 8.19651 16.1887 7.946 16.162ZM4.585 14.4H3.939V12.841H4.594C4.75752 12.8428 4.90863 12.9285 4.994 13.068C5.10222 13.2466 5.15447 13.4535 5.144 13.662C5.15654 13.8565 5.1049 14.0497 4.997 14.212C4.89754 14.3368 4.74447 14.4067 4.585 14.4Z" fill="#A7AFBD"/>
</svg>
