<svg width="16" height="20" viewBox="0 0 16 20" fill="none" xmlns="http://www.w3.org/2000/svg">
  <path d="M14 20H2C0.89543 20 0 19.1046 0 18V2C0 0.895432 0.89543 1.72266e-06 2 1.72266e-06H9C9.00896 -0.00116024 9.01804 -0.00116024 9.027 1.72266e-06H9.033C9.04244 0.00295978 9.05216 0.00496971 9.062 0.00600172C9.15019 0.0116549 9.23726 0.0287999 9.321 0.0570017H9.336H9.351H9.363C9.38145 0.0699275 9.39884 0.0843066 9.415 0.100002C9.52394 0.148425 9.62321 0.216186 9.708 0.300002L15.708 6.3C15.7918 6.38479 15.8596 6.48406 15.908 6.593C15.917 6.615 15.924 6.636 15.931 6.659L15.941 6.687C15.9689 6.77039 15.9854 6.85718 15.99 6.945C15.9909 6.95496 15.9932 6.96474 15.997 6.974V6.98C15.9986 6.98656 15.9996 6.99325 16 7V18C16 18.5304 15.7893 19.0391 15.4142 19.4142C15.0391 19.7893 14.5304 20 14 20ZM11.5 12C11.0461 11.9756 10.6102 12.1802 10.339 12.545C10.0466 13.0059 9.90664 13.5471 9.939 14.092V14.968C9.91068 15.5067 10.0627 16.0394 10.371 16.482C10.661 16.8311 11.0987 17.0231 11.552 17C11.8315 17.0028 12.1088 16.9504 12.368 16.846L12.381 16.841L12.365 16.848C12.6095 16.7467 12.8257 16.5875 12.995 16.384V14.373H11.486V15.115H12.109V16.008L12.031 16.068C11.9044 16.1507 11.7551 16.1916 11.604 16.185C11.3662 16.2029 11.1382 16.0873 11.012 15.885C10.8732 15.5818 10.812 15.2488 10.834 14.916V14.033C10.8156 13.7156 10.8725 13.3983 11 13.107C11.1027 12.9162 11.3067 12.8023 11.523 12.815C11.6866 12.8017 11.8472 12.8648 11.958 12.986C12.0745 13.1761 12.1351 13.3951 12.133 13.618H13C13.0025 13.1728 12.8533 12.7401 12.577 12.391C12.2902 12.113 11.8983 11.9707 11.5 12ZM3 15.4C2.99378 15.6963 3.06258 15.9894 3.2 16.252C3.32645 16.4858 3.51734 16.6784 3.75 16.807C3.98706 16.936 4.25311 17.0024 4.523 17C4.8888 17.0191 5.24693 16.8905 5.517 16.643C5.77111 16.3769 5.90361 16.0174 5.883 15.65C5.89568 15.3093 5.79239 14.9744 5.59 14.7C5.3393 14.4113 5.01725 14.1934 4.656 14.068C4.46566 13.9896 4.29167 13.8764 4.143 13.734C4.05048 13.6343 3.99936 13.503 4 13.367C3.99242 13.2197 4.03862 13.0747 4.13 12.959C4.22087 12.8546 4.35475 12.7978 4.493 12.805C4.64125 12.7974 4.78323 12.8656 4.87 12.986C4.96683 13.1392 5.01236 13.3192 5 13.5H5.886C5.89027 13.2295 5.83138 12.9617 5.714 12.718C5.60755 12.4969 5.43812 12.3121 5.227 12.187C5.00802 12.0597 4.75826 11.995 4.505 12C4.13551 11.9887 3.77637 12.123 3.505 12.374C3.23968 12.6318 3.09675 12.9904 3.112 13.36C3.10581 13.6785 3.20846 13.9897 3.403 14.242C3.66072 14.5345 3.9877 14.7576 4.354 14.891C4.53988 14.9628 4.70979 15.0705 4.854 15.208C4.955 15.3346 5.00463 15.4945 4.993 15.656C4.993 16.017 4.836 16.2 4.528 16.2C4.3457 16.2167 4.16622 16.1463 4.044 16.01C3.93085 15.8269 3.879 15.6125 3.896 15.398L3 15.4ZM6.182 12.068L7.442 16.934H8.367L9.636 12.068H8.645L7.9 15.6L7.163 12.071L6.182 12.068ZM9 2V7H14L9 2Z" fill="#A7AFBD"/>
</svg>
