<svg width="4" height="12" viewBox="0 0 4 12" fill="none" xmlns="http://www.w3.org/2000/svg">
  <path d="M0.5 10.5C0.5 9.67157 1.17157 9 2 9C2.82843 9 3.5 9.67157 3.5 10.5C3.5 11.3284 2.82843 12 2 12C1.60218 12 1.22064 11.842 0.93934 11.5607C0.658035 11.2794 0.5 10.8978 0.5 10.5ZM0.5 6C0.5 5.17157 1.17157 4.5 2 4.5C2.82843 4.5 3.5 5.17157 3.5 6C3.5 6.82843 2.82843 7.5 2 7.5C1.60218 7.5 1.22064 7.34196 0.93934 7.06066C0.658035 6.77935 0.5 6.39782 0.5 6ZM0.5 1.5C0.5 0.671573 1.17157 -1.01779e-07 2 -6.55671e-08C2.82843 -2.93554e-08 3.5 0.671573 3.5 1.5C3.5 2.32843 2.82843 3 2 3C1.60218 3 1.22064 2.84196 0.93934 2.56066C0.658036 2.27936 0.5 1.89782 0.5 1.5Z" fill="#4278DF"/>
</svg>
