<svg width="454" height="295" viewBox="0 0 454 295" fill="none" xmlns="http://www.w3.org/2000/svg">
<path d="M247.67 0C228.663 0.0734459 210.091 5.6959 194.239 16.176C178.388 26.6561 165.946 41.5369 158.445 58.9886V58.9886L120.592 149.048C120.326 149.665 119.932 150.219 119.437 150.673C118.941 151.128 118.355 151.473 117.717 151.685C117.079 151.898 116.403 151.973 115.734 151.907C115.064 151.84 114.417 151.633 113.833 151.299C112.874 150.79 112.09 150.006 111.58 149.048L56.8285 18.4621C53.767 11.2485 47.9707 5.54034 40.7078 2.58671C33.4449 -0.366926 25.3069 -0.325547 18.0745 2.70178V2.70178C10.8555 5.76103 5.14316 11.5531 2.18733 18.8106C-0.768491 26.0681 -0.72709 34.2001 2.30248 41.4271V41.4271L84.3169 236.405L103.243 283.235C104.271 285.87 106.065 288.137 108.394 289.742C110.724 291.348 113.482 292.218 116.312 292.241V292.241C119.162 292.309 121.961 291.475 124.308 289.857C126.655 288.24 128.43 285.922 129.38 283.235L148.306 236.405L205.987 99.5152C211.047 87.5538 219.508 77.3387 230.322 70.1352C241.135 62.9316 253.826 59.0561 266.821 58.9886H344.33C347.053 58.9827 349.752 59.5144 352.269 60.5533C354.787 61.5921 357.074 63.1177 359 65.0423C360.926 66.9669 362.453 69.2527 363.493 71.7685C364.532 74.2842 365.064 76.9804 365.058 79.7022C365.111 82.5088 364.493 85.2874 363.256 87.8075L293.409 253.966C290.428 261.198 290.411 269.311 293.361 276.555C296.312 283.8 301.993 289.595 309.181 292.692V292.692C316.418 295.67 324.537 295.687 331.786 292.739C339.036 289.791 344.835 284.113 347.935 276.931C374.972 213.44 439.412 59.4389 439.412 59.4389L452.03 29.7645C453.449 26.587 454.063 23.1095 453.82 19.6386C453.576 16.1677 452.482 12.81 450.633 9.86147C448.771 7.01853 446.242 4.67435 443.264 3.0338C440.287 1.39325 436.953 0.50626 433.554 0.450305L247.67 0Z" fill="#FFFFFF"/>
</svg>
