<svg width="37" height="22" viewBox="0 0 37 22" fill="none" xmlns="http://www.w3.org/2000/svg">
<path d="M15.8831 0.00134524C15.8611 0.00134524 15.839 0.00403571 15.8169 0.00403571C15.7866 0.00538095 15.7577 0.00672618 15.7273 0.00807142C14.8049 0.0699523 14.0369 0.669928 13.7501 1.49052L9.12703 12.0143L4.43636 1.33447C4.0696 0.500428 3.23681 0 2.36265 0C1.5726 0 0.746703 0.407607 0.203457 1.34524C-0.0350744 1.75688 -0.0640292 2.25596 0.126245 2.69182L8.40178 21.5319C8.52587 21.8157 8.81128 21.9987 9.12703 21.9987C9.44277 21.9987 9.72818 21.8157 9.85227 21.5319L17.3777 4.40027H29.7028L22.3152 18.8158C21.7582 19.9028 22.2104 21.2238 23.3231 21.7673C23.6471 21.9247 23.9905 22 24.3296 22C25.1569 22 25.9525 21.5547 26.3482 20.7839L37.0008 0.00134524H15.8831Z" fill="white"/>
</svg>
