<svg width="14" height="14" viewBox="0 0 14 14" fill="#2e4a77" xmlns="http://www.w3.org/2000/svg">
  <path
    d="M13.405 1.9225L12.3625 0.6625C12.16 0.4075 11.8525 0.25 11.5 0.25H2.5C2.1475 0.25 1.84 0.4075 1.63 0.6625L0.595 1.9225C0.3775 2.1775 0.25 2.515 0.25 2.875V12.25C0.25 13.075 0.925 13.75 1.75 13.75H12.25C13.075 13.75 13.75 13.075 13.75 12.25V2.875C13.75 2.515 13.6225 2.1775 13.405 1.9225ZM6.7375 10.8625L2.875 7H5.5V5.5H8.5V7H11.125L7.2625 10.8625C7.12 11.005 6.88 11.005 6.7375 10.8625ZM1.84 1.75L2.4475 1H11.4475L12.1525 1.75H1.84Z"
    fill="#2e4a77"/>
</svg>
