
<svg width="24" height="24" viewBox="0 0 24 24" fill="none" xmlns="http://www.w3.org/2000/svg">
<path d="M13.9999 21.9999H3.99995C3.46402 22.0186 2.94442 21.8138 2.56524 21.4347C2.18605 21.0555 1.98132 20.5359 1.99995 19.9999V9.99995C1.98132 9.46402 2.18605 8.94442 2.56524 8.56524C2.94442 8.18605 3.46402 7.98132 3.99995 7.99995H7.99995V3.99995C7.98132 3.46402 8.18605 2.94442 8.56524 2.56524C8.94442 2.18605 9.46402 1.98132 9.99995 1.99995H19.9999C20.5359 1.98132 21.0555 2.18605 21.4347 2.56524C21.8138 2.94442 22.0186 3.46402 21.9999 3.99995V13.9999C22.0183 14.5358 21.8134 15.0552 21.4343 15.4343C21.0552 15.8134 20.5358 16.0183 19.9999 15.9999H15.9999V19.9999C16.0183 20.5358 15.8134 21.0552 15.4343 21.4343C15.0552 21.8134 14.5358 22.0183 13.9999 21.9999ZM3.99995 9.99995V19.9999H13.9999V15.9999H9.99995C9.46411 16.0183 8.94468 15.8134 8.56557 15.4343C8.18645 15.0552 7.98162 14.5358 7.99995 13.9999V9.99995H3.99995ZM9.99995 3.99995V13.9999H19.9999V3.99995H9.99995Z" fill="#2E4A77"/>
</svg>

