<svg width="16" height="12" viewBox="0 0 16 12" fill="none" xmlns="http://www.w3.org/2000/svg">
  <path
    d="M8 11.2501C6.76991 11.2655 5.55253 11 4.4405 10.4739C3.57852 10.0533 2.80449 9.47246 2.15975 8.76239C1.47682 8.02823 0.939101 7.17138 0.575 6.23714L0.5 6.00014L0.57875 5.76314C0.943111 4.82971 1.47968 3.97309 2.1605 3.23789C2.80501 2.52787 3.57878 1.94703 4.4405 1.52639C5.55253 1.00033 6.76991 0.734845 8 0.750137C9.23009 0.734871 10.4475 1.00035 11.5595 1.52639C12.4215 1.94694 13.1955 2.52778 13.8403 3.23789C14.5245 3.97105 15.0624 4.82816 15.425 5.76314L15.5 6.00014L15.4213 6.23714C14.2447 9.29998 11.2806 11.3021 8 11.2501ZM8 2.25014C5.4469 2.17013 3.10356 3.65646 2.08775 6.00014C3.1034 8.34396 5.44684 9.83035 8 9.75014C10.553 9.82993 12.8963 8.34367 13.9122 6.00014C12.8978 3.65532 10.5536 2.16845 8 2.25014ZM8 8.25014C6.91799 8.2573 5.98203 7.49816 5.76572 6.43797C5.54942 5.37778 6.1132 4.31265 7.11154 3.89538C8.10987 3.47811 9.26393 3.82524 9.86641 4.72402C10.4689 5.6228 10.3515 6.8222 9.58625 7.58714C9.16724 8.01108 8.59607 8.24981 8 8.25014Z"
    fill="white"/>
</svg>
