<svg width="108" height="64" viewBox="0 0 108 64" fill="none" xmlns="http://www.w3.org/2000/svg">
<path d="M46.3606 0.00391342C46.2962 0.00391342 46.2318 0.0117402 46.1674 0.0117402C46.0789 0.0156537 45.9944 0.0195671 45.9058 0.0234805C43.2134 0.203498 40.9717 1.94888 40.1346 4.33606L26.6401 34.9507L12.9484 3.88211C11.8779 1.45579 9.44702 0 6.89542 0C4.58933 0 2.1786 1.18577 0.592906 3.91342C-0.103349 5.11092 -0.187866 6.5628 0.367528 7.83075L24.5232 62.6381C24.8854 63.4639 25.7185 63.9961 26.6401 63.9961C27.5617 63.9961 28.3948 63.4639 28.757 62.6381L50.7233 12.8008H86.6991L65.1353 54.7369C63.5094 57.899 64.8295 61.742 68.0773 63.323C69.0231 63.7809 70.0252 64 71.0153 64C73.43 64 75.7522 62.7047 76.9073 60.4623L108.001 0.00391342H46.3606Z" fill="#2E4A77"/>
</svg>
