<svg width="12" height="4" viewBox="0 0 12 4" fill="none" xmlns="http://www.w3.org/2000/svg">
<path d="M1.5 0.5C2.32843 0.5 3 1.17157 3 2C3 2.82843 2.32843 3.5 1.5 3.5C0.671575 3.5 1.96606e-06 2.82843 2.03848e-06 2C2.07326e-06 1.60217 0.158037 1.22064 0.439342 0.939339C0.720647 0.658035 1.10218 0.5 1.5 0.5ZM6 0.5C6.82843 0.5 7.5 1.17157 7.5 2C7.5 2.82843 6.82843 3.5 6 3.5C5.17157 3.5 4.5 2.82843 4.5 2C4.5 1.60217 4.65804 1.22064 4.93934 0.939339C5.22065 0.658035 5.60218 0.5 6 0.5ZM10.5 0.5C11.3284 0.5 12 1.17157 12 2C12 2.82843 11.3284 3.5 10.5 3.5C9.67157 3.5 9 2.82843 9 2C9 1.60218 9.15804 1.22064 9.43934 0.93934C9.72064 0.658036 10.1022 0.5 10.5 0.5Z" fill="#A7AFBD"/>
</svg>
