<svg width="14" height="12" viewBox="0 0 14 12" fill="none" xmlns="http://www.w3.org/2000/svg">
<path d="M11.2001 11.9001H0.700004C0.514216 11.902 0.335548 11.8287 0.204631 11.6968C0.0737148 11.565 0.00167694 11.3858 0.00490003 11.2001H0V1.40001C0 0.626805 0.626805 0 1.40001 0H5.60003C5.75638 0.000149094 5.90818 0.0526388 6.03123 0.149101L7.63004 1.40001H11.2001C11.9733 1.40001 12.6001 2.02681 12.6001 2.80001V5.60003H13.3001C13.5354 5.60006 13.7549 5.7183 13.8844 5.91475C14.0139 6.1112 14.0361 6.35957 13.9434 6.57584L11.8434 11.4759C11.7331 11.7332 11.48 11.9001 11.2001 11.9001ZM3.26202 7.00004L1.76191 10.5001H10.7388L12.2389 7.00004H3.26202ZM1.40001 2.80001V7.79104L2.15671 6.02423C2.26702 5.76691 2.52004 5.60006 2.80001 5.60003H11.2001V2.80001H1.40001Z" fill="#4278DF"/>
</svg>
