<svg width="14" height="13" viewBox="0 0 14 13" fill="none" xmlns="http://www.w3.org/2000/svg">
<path d="M4.9 0C2.967 0 1.4 1.567 1.4 3.5C1.4 5.433 2.967 7 4.9 7C6.833 7 8.4 5.433 8.4 3.5C8.4 1.567 6.833 0 4.9 0ZM2.8 3.5C2.8 2.3402 3.7402 1.4 4.9 1.4C6.0598 1.4 7 2.3402 7 3.5C7 4.6598 6.0598 5.6 4.9 5.6C3.7402 5.6 2.8 4.6598 2.8 3.5Z" fill="#4278DF"/>
<path d="M10.4359 3.6528C10.239 3.55239 10.0211 3.50004 9.8 3.50004V2.10004C10.2421 2.10004 10.678 2.20469 11.0718 2.40551C11.1152 2.42763 11.1579 2.45085 11.2 2.47513C11.5398 2.6713 11.835 2.93698 12.0661 3.25539C12.3258 3.61321 12.4971 4.02743 12.5659 4.46416C12.6347 4.90089 12.5991 5.3477 12.4621 5.76804C12.325 6.18837 12.0903 6.57028 11.7773 6.88249C11.4643 7.19471 11.0818 7.42835 10.6611 7.56432C10.2867 7.6853 9.89159 7.72587 9.50148 7.68404C9.4532 7.67886 9.40499 7.67243 9.35691 7.66472C8.92066 7.5948 8.50716 7.42265 8.15019 7.16233L8.14946 7.16179L8.97473 6.0309C9.15329 6.1612 9.3602 6.24734 9.57846 6.28232C9.79673 6.3173 10.0202 6.3001 10.2305 6.23212C10.4409 6.16414 10.6321 6.04732 10.7886 5.89122C10.9451 5.73511 11.0625 5.54417 11.131 5.33401C11.1995 5.12385 11.2173 4.90044 11.1829 4.68209C11.1485 4.46373 11.0629 4.25662 10.933 4.07772C10.8032 3.89882 10.6328 3.7532 10.4359 3.6528Z" fill="#4278DF"/>
<path d="M12.5987 12.6C12.5987 12.2325 12.5263 11.8685 12.3856 11.529C12.245 11.1894 12.0388 10.8809 11.779 10.621C11.5191 10.3612 11.2106 10.155 10.871 10.0144C10.5315 9.87372 10.1675 9.80133 9.8 9.80133V8.4C10.2775 8.4 10.7509 8.48141 11.2 8.6402C11.2697 8.66485 11.3388 8.69135 11.4073 8.71971C11.9168 8.93078 12.3798 9.24015 12.7698 9.63015C13.1599 10.0202 13.4692 10.4832 13.6803 10.9927C13.7086 11.0612 13.7352 11.1303 13.7598 11.2C13.9186 11.6491 14 12.1225 14 12.6H12.5987Z" fill="#4278DF"/>
<path d="M9.8 12.6H8.4C8.4 10.667 6.833 9.1 4.9 9.1C2.967 9.1 1.4 10.667 1.4 12.6H0C0 9.89381 2.1938 7.7 4.9 7.7C7.6062 7.7 9.8 9.89381 9.8 12.6Z" fill="#4278DF"/>
</svg>
