<svg width="20" height="20" viewBox="0 0 20 20" fill="none" xmlns="http://www.w3.org/2000/svg">
<path d="M10 20C4.47967 19.9939 0.00606237 15.5203 0 9.99999V9.79999C0.109931 4.30452 4.63459 -0.0720562 10.1307 0.0008677C15.6268 0.0737916 20.0337 4.56887 19.9978 10.0653C19.9619 15.5618 15.4966 19.9989 10 20ZM9.984 18H10C14.4167 17.9956 17.9942 14.4127 17.992 9.99599C17.9898 5.57928 14.4087 1.99999 9.992 1.99999C5.57528 1.99999 1.99421 5.57928 1.992 9.99599C1.98979 14.4127 5.56729 17.9956 9.984 18ZM13 14H11V5.99999H13V14ZM9 14H7V5.99999H9V14Z" fill="#4278DF"/>
</svg>
