<svg width="16" height="20" viewBox="0 0 16 20" fill="none" xmlns="http://www.w3.org/2000/svg">
  <path d="M14 19.9999H2C0.89543 19.9999 0 19.1045 0 17.9999V1.99989C0 0.895325 0.89543 -0.000105089 2 -0.000105089H9C9.00896 -0.00126705 9.01804 -0.00126705 9.027 -0.000105089H9.033C9.04244 0.00285297 9.05216 0.0048629 9.062 0.00589491C9.15019 0.0115481 9.23726 0.0286931 9.321 0.0568949H9.336H9.351H9.363C9.38145 0.0698207 9.39884 0.0841998 9.415 0.0998949C9.52394 0.148318 9.62321 0.216079 9.708 0.299895L15.708 6.2999C15.7918 6.38468 15.8596 6.48395 15.908 6.5929C15.917 6.61489 15.924 6.6359 15.931 6.6589L15.941 6.68689C15.9689 6.77029 15.9854 6.85708 15.99 6.9449C15.9909 6.95486 15.9932 6.96463 15.997 6.9739V6.9799C15.9986 6.98645 15.9996 6.99315 16 6.9999V17.9999C16 18.5303 15.7893 19.039 15.4142 19.4141C15.0391 19.7892 14.5304 19.9999 14 19.9999ZM10.424 11.9999V16.9999H11.364V14.9599H12.824V14.1219H11.364V12.8409H13V11.9999H10.424ZM6.724 11.9999V16.9999H7.93C8.43593 17.0248 8.92583 16.8188 9.262 16.4399C9.6069 15.9998 9.77967 15.4491 9.748 14.8909V14.0809C9.77117 13.5285 9.59356 12.9864 9.248 12.5549C8.92263 12.1845 8.44761 11.9806 7.955 11.9999H6.724ZM3 11.9999V16.9999H3.94V15.2409H4.566C4.98402 15.264 5.39232 15.1093 5.69 14.8149C5.97408 14.4973 6.12141 14.0805 6.1 13.6549C6.11856 13.2191 5.97135 12.7925 5.688 12.4609C5.40772 12.1501 5.00309 11.981 4.585 11.9999H3ZM9 1.99989V6.9999H14L9 1.99989ZM7.946 16.1619H7.664V12.8409H8.006C8.24885 12.8266 8.48236 12.9366 8.626 13.1329C8.77261 13.4362 8.83544 13.7732 8.808 14.1089V14.9779C8.82996 15.2976 8.7606 15.6171 8.608 15.8989C8.4441 16.0902 8.19651 16.1886 7.946 16.1619ZM4.585 14.3999H3.939V12.8409H4.594C4.75752 12.8427 4.90863 12.9284 4.994 13.0679C5.10222 13.2465 5.15447 13.4534 5.144 13.6619C5.15654 13.8564 5.1049 14.0496 4.997 14.2119C4.89754 14.3367 4.74447 14.4066 4.585 14.3999Z" fill="#A7AFBD"/>
</svg>
