<svg width="23" height="23" viewBox="0 0 23 23" fill="none" xmlns="http://www.w3.org/2000/svg">
<path fill-rule="evenodd" clip-rule="evenodd" d="M11.5 23C17.8513 23 23 17.8513 23 11.5C23 5.14873 17.8513 0 11.5 0C5.14873 0 0 5.14873 0 11.5C0 17.8513 5.14873 23 11.5 23ZM11.4997 19.9333C16.1573 19.9333 19.9331 16.1576 19.9331 11.5C19.9331 6.84239 16.1573 3.06666 11.4997 3.06666C6.84214 3.06666 3.06641 6.84239 3.06641 11.5C3.06641 16.1576 6.84214 19.9333 11.4997 19.9333Z" fill="#4278DF"/>
<path d="M15.3093 10.924C15.6689 11.2238 15.6689 11.7762 15.3093 12.076L10.4803 16.1031C9.9919 16.5105 9.25 16.1631 9.25 15.5271L9.25 7.47288C9.25 6.83687 9.9919 6.48955 10.4803 6.89688L15.3093 10.924Z" fill="#4278DF"/>
</svg>
