<?xml version="1.0" encoding="utf-8"?>
<svg xmlns="http://www.w3.org/2000/svg" xmlns:xlink="http://www.w3.org/1999/xlink" style="margin: auto; background-color: rgb(241, 242, 243); display: block; shape-rendering: auto;" width="281px" height="281px" viewBox="0 0 100 100" preserveAspectRatio="xMidYMid">
<g transform="rotate(0 50 50)">
  <rect x="42.5" y="19.5" rx="2.85" ry="2.85" width="15" height="15" fill="#85a2b6">
    <animate attributeName="opacity" values="1;0" keyTimes="0;1" dur="0.9345794392523364s" begin="-0.8010680907877169s" repeatCount="indefinite"></animate>
  </rect>
</g><g transform="rotate(51.42857142857143 50 50)">
  <rect x="42.5" y="19.5" rx="2.85" ry="2.85" width="15" height="15" fill="#85a2b6">
    <animate attributeName="opacity" values="1;0" keyTimes="0;1" dur="0.9345794392523364s" begin="-0.6675567423230975s" repeatCount="indefinite"></animate>
  </rect>
</g><g transform="rotate(102.85714285714286 50 50)">
  <rect x="42.5" y="19.5" rx="2.85" ry="2.85" width="15" height="15" fill="#85a2b6">
    <animate attributeName="opacity" values="1;0" keyTimes="0;1" dur="0.9345794392523364s" begin="-0.5340453938584779s" repeatCount="indefinite"></animate>
  </rect>
</g><g transform="rotate(154.28571428571428 50 50)">
  <rect x="42.5" y="19.5" rx="2.85" ry="2.85" width="15" height="15" fill="#85a2b6">
    <animate attributeName="opacity" values="1;0" keyTimes="0;1" dur="0.9345794392523364s" begin="-0.40053404539385845s" repeatCount="indefinite"></animate>
  </rect>
</g><g transform="rotate(205.71428571428572 50 50)">
  <rect x="42.5" y="19.5" rx="2.85" ry="2.85" width="15" height="15" fill="#85a2b6">
    <animate attributeName="opacity" values="1;0" keyTimes="0;1" dur="0.9345794392523364s" begin="-0.26702269692923897s" repeatCount="indefinite"></animate>
  </rect>
</g><g transform="rotate(257.14285714285717 50 50)">
  <rect x="42.5" y="19.5" rx="2.85" ry="2.85" width="15" height="15" fill="#85a2b6">
    <animate attributeName="opacity" values="1;0" keyTimes="0;1" dur="0.9345794392523364s" begin="-0.13351134846461948s" repeatCount="indefinite"></animate>
  </rect>
</g><g transform="rotate(308.57142857142856 50 50)">
  <rect x="42.5" y="19.5" rx="2.85" ry="2.85" width="15" height="15" fill="#85a2b6">
    <animate attributeName="opacity" values="1;0" keyTimes="0;1" dur="0.9345794392523364s" begin="0s" repeatCount="indefinite"></animate>
  </rect>
</g>
<!-- [ldio] generated by https://loading.io/ --></svg>