<svg width="14" height="16" viewBox="0 0 14 16" fill="none" xmlns="http://www.w3.org/2000/svg">
  <path
    d="M12.25 2.25H11.5V1.5C11.5 1.0875 11.1625 0.75 10.75 0.75C10.3375 0.75 10 1.0875 10 1.5V2.25H4V1.5C4 1.0875 3.6625 0.75 3.25 0.75C2.8375 0.75 2.5 1.0875 2.5 1.5V2.25H1.75C0.9175 2.25 0.2575 2.925 0.2575 3.75L0.25 14.25C0.25 15.075 0.9175 15.75 1.75 15.75H12.25C13.075 15.75 13.75 15.075 13.75 14.25V3.75C13.75 2.925 13.075 2.25 12.25 2.25ZM11.5 14.25H2.5C2.0875 14.25 1.75 13.9125 1.75 13.5V6H12.25V13.5C12.25 13.9125 11.9125 14.25 11.5 14.25ZM4 7.5H6.25C6.6625 7.5 7 7.8375 7 8.25V10.5C7 10.9125 6.6625 11.25 6.25 11.25H4C3.5875 11.25 3.25 10.9125 3.25 10.5V8.25C3.25 7.8375 3.5875 7.5 4 7.5Z"
    fill="#667A99"/>
</svg>
