<svg width="14" height="16" viewBox="0 0 14 16" fill="none" xmlns="http://www.w3.org/2000/svg">
  <path
    d="M10.1111 8.8H7.77778C7.35 8.8 7 9.16 7 9.6V12C7 12.44 7.35 12.8 7.77778 12.8H10.1111C10.5389 12.8 10.8889 12.44 10.8889 12V9.6C10.8889 9.16 10.5389 8.8 10.1111 8.8ZM10.1111 0.8V1.6H3.88889V0.8C3.88889 0.36 3.53889 0 3.11111 0C2.68333 0 2.33333 0.36 2.33333 0.8V1.6H1.55556C0.692222 1.6 0.00777777 2.32 0.00777777 3.2L0 14.4C0 15.28 0.692222 16 1.55556 16H12.4444C13.3 16 14 15.28 14 14.4V3.2C14 2.32 13.3 1.6 12.4444 1.6H11.6667V0.8C11.6667 0.36 11.3167 0 10.8889 0C10.4611 0 10.1111 0.36 10.1111 0.8ZM11.6667 14.4H2.33333C1.90556 14.4 1.55556 14.04 1.55556 13.6V5.6H12.4444V13.6C12.4444 14.04 12.0944 14.4 11.6667 14.4Z"
    fill="#979FB0"/>
</svg>
