<svg width="31" height="36" viewBox="0 0 31 36" fill="none" xmlns="http://www.w3.org/2000/svg">
<path d="M8.86543 24.462C13.4097 30.0829 21.6231 31.5589 27.8995 27.9699C28.536 27.6024 29.137 27.2035 29.6951 26.76C30.2921 26.2941 29.927 25.3617 29.157 25.4079C23.6736 25.7505 18.2083 23.0343 15.2683 17.942C12.3283 12.8498 12.7086 6.75857 15.7395 2.16815C16.1515 1.53187 15.5396 0.742007 14.8376 1.02607C14.182 1.30063 13.536 1.62166 12.8995 1.98916C6.65312 5.63014 3.8247 13.4812 6.42043 20.2271C6.71601 21.0091 7.09503 21.7256 7.50003 22.427C7.90503 23.1285 8.33601 23.815 8.86543 24.462Z" fill="#2E4A77"/>
</svg>
