<svg width="25" height="25" viewBox="0 0 25 25" fill="none" xmlns="http://www.w3.org/2000/svg">
<path d="M21.4492 13.725C21.4992 13.325 21.5367 12.925 21.5367 12.5C21.5367 12.075 21.4992 11.675 21.4492 11.275L24.0867 9.2125C24.3242 9.025 24.3867 8.6875 24.2367 8.4125L21.7367 4.0875C21.5867 3.8125 21.2492 3.7125 20.9742 3.8125L17.8617 5.0625C17.2117 4.5625 16.5117 4.15 15.7492 3.8375L15.2742 0.525C15.2367 0.225 14.9742 0 14.6617 0H9.66166C9.34916 0 9.08666 0.225 9.04916 0.525L8.57416 3.8375C7.81166 4.15 7.11166 4.575 6.46166 5.0625L3.34916 3.8125C3.06166 3.7 2.73666 3.8125 2.58666 4.0875L0.0866645 8.4125C-0.0758355 8.6875 -0.000835378 9.025 0.236665 9.2125L2.87416 11.275C2.82416 11.675 2.78666 12.0875 2.78666 12.5C2.78666 12.9125 2.82416 13.325 2.87416 13.725L0.236665 15.7875C-0.000835378 15.975 -0.0633355 16.3125 0.0866645 16.5875L2.58666 20.9125C2.73666 21.1875 3.07416 21.2875 3.34916 21.1875L6.46166 19.9375C7.11166 20.4375 7.81166 20.85 8.57416 21.1625L9.04916 24.475C9.08666 24.775 9.34916 25 9.66166 25H14.6617C14.9742 25 15.2367 24.775 15.2742 24.475L15.7492 21.1625C16.5117 20.85 17.2117 20.425 17.8617 19.9375L20.9742 21.1875C21.2617 21.3 21.5867 21.1875 21.7367 20.9125L24.2367 16.5875C24.3867 16.3125 24.3242 15.975 24.0867 15.7875L21.4492 13.725ZM12.1617 16.875C9.74916 16.875 7.78666 14.9125 7.78666 12.5C7.78666 10.0875 9.74916 8.125 12.1617 8.125C14.5742 8.125 16.5367 10.0875 16.5367 12.5C16.5367 14.9125 14.5742 16.875 12.1617 16.875Z" fill="#4278DF"/>
</svg>
