<svg width="18" height="18" viewBox="0 0 18 18" fill="none" xmlns="http://www.w3.org/2000/svg">
<path d="M5.46501 17.535C3.44285 17.535 1.61979 16.3169 0.845815 14.4488C0.071839 12.5806 0.499345 10.4301 1.92901 9.00002L4.05101 6.87802L5.46501 8.29202L3.34401 10.413C2.58607 11.171 2.29007 12.2757 2.56749 13.311C2.84492 14.3464 3.65363 15.1551 4.68899 15.4325C5.72435 15.71 6.82907 15.414 7.58701 14.656L9.70801 12.535L11.122 13.95L9.00101 16.071C8.06509 17.0116 6.79187 17.5387 5.46501 17.535ZM6.17201 13.242L4.75801 11.828L11.829 4.75702L13.243 6.17102L6.17301 13.241L6.17201 13.242ZM13.951 11.121L12.536 9.70702L14.657 7.58602C15.4253 6.83035 15.7292 5.72069 15.4533 4.679C15.1773 3.63732 14.3638 2.82367 13.3222 2.54746C12.2806 2.27126 11.1709 2.57494 10.415 3.34302L8.29301 5.46402L6.87901 4.05002L9.00101 1.92802C10.9561 -0.0100136 14.11 -0.00310719 16.0566 1.94347C18.0031 3.89005 18.01 7.04394 16.072 8.99902L13.951 11.12V11.121Z" fill="#2E4A77"/>
</svg>
