<svg width="30" height="30" viewBox="0 0 30 30" fill="none" xmlns="http://www.w3.org/2000/svg">
<path d="M15 29.9999C12.7321 30.0063 10.4929 29.4932 8.45407 28.4999C7.70789 28.137 6.99297 27.713 6.31659 27.2324L6.11109 27.0824C4.25084 25.7093 2.72993 23.9283 1.66513 21.8759C0.563748 19.7517 -0.007489 17.3927 7.41336e-05 14.9999C7.41336e-05 6.7157 6.71581 0 15 0C23.2842 0 29.9999 6.7157 29.9999 14.9999C30.0074 17.3915 29.4367 19.7495 28.3364 21.8729C27.2731 23.9241 25.7543 25.7045 23.8964 27.0779C23.1956 27.5909 22.4518 28.0426 21.6734 28.4279L21.5534 28.4879C19.5133 29.4865 17.2714 30.0037 15 29.9999ZM15 22.4999C12.7522 22.4955 10.6915 23.7509 9.66455 25.7504C13.0266 27.4157 16.9734 27.4157 20.3354 25.7504V25.7429C19.3072 23.7456 17.2464 22.493 15 22.4999ZM15 19.4999C18.2491 19.5042 21.2451 21.2551 22.8434 24.0839L22.8659 24.0644L22.8869 24.0464L22.8614 24.0689L22.8464 24.0809C26.6399 20.8036 27.9963 15.5134 26.2479 10.8151C24.4994 6.11679 20.0146 3.00046 15.0015 3.00046C9.98841 3.00046 5.50358 6.11679 3.75514 10.8151C2.00669 15.5134 3.36312 20.8036 7.15658 24.0809C8.75595 21.2535 11.7516 19.5039 15 19.4999ZM15 17.9999C11.6863 17.9999 9.00006 15.3136 9.00006 12C9.00006 8.68626 11.6863 5.99998 15 5.99998C18.3137 5.99998 20.9999 8.68626 20.9999 12C20.9999 13.5912 20.3678 15.1174 19.2426 16.2426C18.1174 17.3678 16.5913 17.9999 15 17.9999ZM15 8.99996C13.3432 8.99996 12 10.3431 12 12C12 13.6568 13.3432 14.9999 15 14.9999C16.6568 14.9999 18 13.6568 18 12C18 10.3431 16.6568 8.99996 15 8.99996Z" fill="#2E3A59"/>
</svg>
