<svg width="12" height="16" viewBox="0 0 12 16" fill="none" xmlns="http://www.w3.org/2000/svg">
<path d="M2.6925 3.05734C2.1075 2.47234 2.1075 1.51984 2.6925 0.934844C3.2775 0.349844 4.23 0.349844 4.815 0.934844C5.4 1.51984 5.4 2.47234 4.815 3.05734C4.2225 3.64984 3.2775 3.64984 2.6925 3.05734ZM1.5 10.9998V4.24984H0V10.9998C0 13.0698 1.68 14.7498 3.75 14.7498H8.25V13.2498H3.75C2.505 13.2498 1.5 12.2448 1.5 10.9998ZM12 14.0523L8.1975 10.2498H5.625V7.48984C6.675 8.35234 8.325 9.10984 9.75 9.10984V7.48984C8.505 7.50484 7.0425 6.83734 6.2475 5.95984L5.1975 4.79734C5.055 4.63984 4.875 4.51234 4.68 4.42234C4.4625 4.31734 4.215 4.24984 3.96 4.24984H3.9375C3.0075 4.24984 2.25 5.00734 2.25 5.93734V10.2498C2.25 11.4948 3.255 12.4998 4.5 12.4998H8.3025L10.9275 15.1248L12 14.0523Z" fill="#A7AFBD"/>
</svg>
