<svg width="56" height="56" viewBox="0 0 56 56" fill="none" xmlns="http://www.w3.org/2000/svg">
  <path d="M23.5 14.5C19.3579 14.5 16 17.8579 16 22C16 26.1421 19.3579 29.5 23.5 29.5C27.6421 29.5 31 26.1421 31 22C31 17.8579 27.6421 14.5 23.5 14.5ZM19 22C19 19.5147 21.0147 17.5 23.5 17.5C25.9853 17.5 28 19.5147 28 22C28 24.4853 25.9853 26.5 23.5 26.5C21.0147 26.5 19 24.4853 19 22Z" fill="#4278DF"/>
  <path d="M35.3626 22.3274C34.9406 22.1123 34.4737 22.0001 34 22.0001V19.0001C34.9474 19.0001 35.8813 19.2243 36.7253 19.6547C36.8183 19.7021 36.9099 19.7518 37 19.8038C37.7281 20.2242 38.3608 20.7935 38.8559 21.4758C39.4124 22.2426 39.7794 23.1302 39.9269 24.0661C40.0743 25.0019 39.9981 25.9594 39.7044 26.8601C39.4107 27.7608 38.9079 28.5792 38.2371 29.2482C37.5663 29.9172 36.7466 30.4179 35.8451 30.7092C35.0429 30.9685 34.1963 31.0554 33.3603 30.9658C33.2569 30.9547 33.1536 30.9409 33.0505 30.9244C32.1157 30.7746 31.2296 30.4057 30.4647 29.8478L30.4631 29.8467L32.2316 27.4233C32.6142 27.7026 33.0576 27.8872 33.5253 27.9621C33.993 28.0371 34.4718 28.0002 34.9225 27.8545C35.3733 27.7089 35.7831 27.4585 36.1185 27.124C36.4539 26.7895 36.7053 26.3804 36.8521 25.93C36.999 25.4797 37.0371 25.0009 36.9633 24.533C36.8896 24.0651 36.7061 23.6213 36.4279 23.238C36.1497 22.8546 35.7846 22.5426 35.3626 22.3274Z" fill="#4278DF"/>
  <path d="M39.9972 41.5C39.9972 40.7124 39.842 39.9326 39.5406 39.205C39.2393 38.4774 38.7975 37.8163 38.2406 37.2594C37.6837 36.7025 37.0226 36.2607 36.295 35.9594C35.5674 35.658 34.7876 35.5028 34 35.5028V32.5C35.0231 32.5 36.0376 32.6744 37 33.0147C37.1494 33.0675 37.2975 33.1243 37.4442 33.1851C38.5361 33.6374 39.5282 34.3003 40.364 35.136C41.1997 35.9718 41.8626 36.9639 42.3149 38.0558C42.3757 38.2025 42.4325 38.3506 42.4853 38.5C42.8256 39.4624 43 40.4769 43 41.5H39.9972Z" fill="#4278DF"/>
  <path d="M34 41.5H31C31 37.3579 27.6421 34 23.5 34C19.3579 34 16 37.3579 16 41.5H13C13 35.701 17.701 31 23.5 31C29.299 31 34 35.701 34 41.5Z" fill="#4278DF"/>
  <rect x="0.75" y="0.75" width="54.5" height="54.5" rx="14.25" stroke="#4278DF" stroke-width="1.5"/>
</svg>
