<svg width="56" height="56" viewBox="0 0 56 56" fill="none" xmlns="http://www.w3.org/2000/svg">
  <rect x="0.75" y="0.75" width="54.5" height="54.5" rx="14.25" stroke="#4278DF" stroke-width="1.5"/>
  <path d="M16 38.5H13C13 33.5294 17.0294 29.5 22 29.5C26.9706 29.5 31 33.5294 31 38.5H28C28 35.1863 25.3137 32.5 22 32.5C18.6863 32.5 16 35.1863 16 38.5ZM38.5 34H35.5V29.5H31V26.5H35.5V22H38.5V26.5H43V29.5H38.5V34ZM22 28C18.6863 28 16 25.3137 16 22C16 18.6863 18.6863 16 22 16C25.3137 16 28 18.6863 28 22C27.9959 25.312 25.312 27.9959 22 28ZM22 19C20.3611 19.0017 19.0268 20.3183 19.0033 21.957C18.9799 23.5957 20.2758 24.9501 21.914 24.9987C23.5522 25.0473 24.9262 23.7722 25 22.135V22.735V22C25 20.3431 23.6569 19 22 19Z" fill="#4278DF"/>
</svg>
