<svg width="12" height="16" viewBox="0 0 12 16" fill="none" xmlns="http://www.w3.org/2000/svg">
<path d="M2.6925 3.0575C2.1075 2.4725 2.1075 1.52 2.6925 0.934996C3.2775 0.349996 4.23 0.349996 4.815 0.934996C5.4 1.52 5.4 2.4725 4.815 3.0575C4.2225 3.65 3.2775 3.65 2.6925 3.0575ZM1.5 11V4.25H0V11C0 13.07 1.68 14.75 3.75 14.75H8.25V13.25H3.75C2.505 13.25 1.5 12.245 1.5 11ZM12 14.0525L8.1975 10.25H5.625V7.49C6.675 8.3525 8.325 9.11 9.75 9.11V7.49C8.505 7.505 7.0425 6.8375 6.2475 5.96L5.1975 4.7975C5.055 4.64 4.875 4.5125 4.68 4.4225C4.4625 4.3175 4.215 4.25 3.96 4.25H3.9375C3.0075 4.25 2.25 5.0075 2.25 5.9375V10.25C2.25 11.495 3.255 12.5 4.5 12.5H8.3025L10.9275 15.125L12 14.0525Z" fill="rgba(248, 111, 140, 1)"/>
</svg>
