<svg width="21" height="21" viewBox="0 0 21 21" fill="none" xmlns="http://www.w3.org/2000/svg">
<path d="M8.75005 20.0002H2.91705C1.76655 19.9991 0.834154 19.0667 0.833052 17.9162V8.21616C0.0162635 7.63654 -0.238045 6.53768 0.241052 5.65816C1.14105 4.05016 2.05905 2.46516 2.96205 0.946156C3.32422 0.353155 3.97123 -0.00604409 4.66605 7.69986e-05C5.08957 0.00437969 5.50154 0.138792 5.84605 0.385156L5.87005 0.400156C6.28205 0.640156 10.2621 3.00916 13.4611 4.91216L16.3001 6.60016L16.4301 6.67716C18.6481 7.98816 19.1471 8.28616 19.1751 8.30516C19.9916 8.88326 20.2427 9.98293 19.7581 10.8582C18.8751 12.4352 17.9581 14.0202 17.0371 15.5702C16.6796 16.1567 16.044 16.5165 15.3571 16.5212C15.2225 16.5212 15.0883 16.5061 14.9571 16.4762C14.8411 16.5452 14.2011 16.9562 13.3901 17.4762C11.9471 18.4012 9.97505 19.6662 9.74705 19.7832C9.43943 19.9415 9.09565 20.0163 8.75005 20.0002ZM2.50005 11.0302V17.9162C2.50005 18.1465 2.68675 18.3332 2.91705 18.3332H6.74005C5.28705 15.8802 3.86105 13.4222 2.50005 11.0302ZM3.85805 10.0302C4.25805 10.7172 8.57405 18.1622 8.61005 18.2122C8.6669 18.286 8.75485 18.3292 8.84805 18.3292C8.89721 18.3292 8.94563 18.3172 8.98905 18.2942C9.12405 18.2182 13.1831 15.6102 13.2231 15.5842C12.9091 15.3992 10.6371 14.0452 8.23105 12.6122L3.83805 10.0002L3.84505 10.0112L3.85505 10.0282V10.0342L3.85805 10.0302ZM4.33205 1.90016C3.52405 3.20016 1.71605 6.42816 1.69205 6.48716C1.63276 6.62881 1.68536 6.79254 1.81605 6.87316C1.94905 6.95216 15.1701 14.8292 15.2961 14.8492C15.312 14.8503 15.3281 14.8503 15.3441 14.8492C15.4527 14.8495 15.5536 14.793 15.6101 14.7002C16.4241 13.3332 18.2991 10.0432 18.3041 10.0332C18.362 9.89092 18.3092 9.72764 18.1791 9.64616C18.0521 9.57016 4.85605 1.72816 4.77105 1.69116C4.73242 1.67489 4.69097 1.66639 4.64905 1.66616C4.54374 1.66673 4.44574 1.72005 4.38805 1.80816L4.38105 1.82016L4.37305 1.83216L4.36105 1.85216V1.85716L4.34605 1.88116L4.33105 1.90016H4.33205ZM5.68505 7.39016C4.7656 7.3896 4.02042 6.64427 4.02006 5.72482C4.01969 4.80536 4.76427 4.05944 5.68372 4.05816C6.60318 4.05687 7.34984 4.8007 7.35205 5.72016C7.35095 6.64036 6.60525 7.38605 5.68505 7.38716V7.39016Z" fill="#2E4A77"/>
</svg>
