<svg width="16" height="8" viewBox="0 0 16 8" fill="none" xmlns="http://www.w3.org/2000/svg">
<path d="M2 8C0.89543 8 0 7.10457 0 6C0 4.89543 0.89543 4 2 4C3.10457 4 4 4.89543 4 6C4 6.53043 3.78929 7.03914 3.41421 7.41421C3.03914 7.78929 2.53043 8 2 8ZM8 6C6.89543 6 6 5.10457 6 4C6 2.89543 6.89543 2 8 2C9.10457 2 10 2.89543 10 4C10 4.53043 9.78929 5.03914 9.41421 5.41421C9.03914 5.78929 8.53043 6 8 6ZM14 4C12.8954 4 12 3.10457 12 2C12 0.89543 12.8954 0 14 0C15.1046 0 16 0.89543 16 2C16 2.53043 15.7893 3.03914 15.4142 3.41421C15.0391 3.78929 14.5304 4 14 4Z" fill="#4278DF"/>
</svg>
