<svg width="553" height="404" viewBox="0 0 553 404" fill="none" xmlns="http://www.w3.org/2000/svg">
<path d="M245.237 403.993C356.848 403.993 447.327 313.556 447.327 201.997C447.327 90.4369 356.848 0 245.237 0C133.626 0 43.1466 90.4369 43.1466 201.997C43.1466 313.556 133.626 403.993 245.237 403.993Z" fill="#E2EBFA"/>
<path d="M462.361 78.1353H385.67C376.158 78.1353 368.446 85.8415 368.446 95.3477C368.446 104.854 376.158 112.56 385.67 112.56H462.361C471.873 112.56 479.585 104.854 479.585 95.3477C479.585 85.8415 471.873 78.1353 462.361 78.1353Z" fill="#E2EBFA"/>
<path d="M535.776 78.1353H514.297C504.784 78.1353 497.073 85.8415 497.073 95.3477C497.073 104.854 504.784 112.56 514.297 112.56H535.776C545.289 112.56 553 104.854 553 95.3477C553 85.8415 545.289 78.1353 535.776 78.1353Z" fill="#E2EBFA"/>
<path d="M494.319 130.235H396.678C387.165 130.235 379.454 137.941 379.454 147.447C379.454 156.953 387.165 164.66 396.678 164.66H494.319C503.832 164.66 511.543 156.953 511.543 147.447C511.543 137.941 503.832 130.235 494.319 130.235Z" fill="#E2EBFA"/>
<path d="M77.1076 253.109H17.2239C7.71139 253.109 0 260.815 0 270.321C0 279.828 7.71139 287.534 17.2239 287.534H77.1076C86.6201 287.534 94.3315 279.828 94.3315 270.321C94.3315 260.815 86.6201 253.109 77.1076 253.109Z" fill="#E2EBFA"/>
<path d="M124.19 307.94H35.901C29.4493 307.94 24.2191 313.168 24.2191 319.616C24.2191 326.065 29.4493 331.293 35.901 331.293H124.19C130.642 331.293 135.872 326.065 135.872 319.616C135.872 313.168 130.642 307.94 124.19 307.94Z" fill="#E2EBFA"/>
<path d="M245.237 301.657C262.572 301.657 276.625 287.61 276.625 270.283C276.625 252.956 262.572 238.91 245.237 238.91C227.902 238.91 213.849 252.956 213.849 270.283C213.849 287.61 227.902 301.657 245.237 301.657Z" fill="#4278DF"/>
<path d="M316.184 168.621V230.833H174.332V168.621C174.332 149.819 181.804 131.787 195.106 118.492C208.407 105.197 226.447 97.7281 245.258 97.7281C264.069 97.7281 282.109 105.197 295.41 118.492C308.711 131.787 316.184 149.819 316.184 168.621Z" fill="white"/>
<path d="M336.822 226.448H153.652C141.544 226.448 131.728 236.259 131.728 248.362V248.369C131.728 260.472 141.544 270.283 153.652 270.283H336.822C348.93 270.283 358.746 260.472 358.746 248.369V248.362C358.746 236.259 348.93 226.448 336.822 226.448Z" fill="#BBD5F9"/>
<path d="M245.237 97.7212C254.212 97.7212 261.487 90.449 261.487 81.4784C261.487 72.5077 254.212 65.2355 245.237 65.2355C236.262 65.2355 228.987 72.5077 228.987 81.4784C228.987 90.449 236.262 97.7212 245.237 97.7212Z" fill="#B5DAFE"/>
</svg>
