<svg width="576" height="404" viewBox="0 0 576 404" fill="none" xmlns="http://www.w3.org/2000/svg">
<g clip-path="url(#clip0_104_55)">
<path d="M255.328 403.993C371.531 403.993 465.733 313.556 465.733 201.997C465.733 90.4369 371.531 0 255.328 0C139.124 0 44.922 90.4369 44.922 201.997C44.922 313.556 139.124 403.993 255.328 403.993Z" fill="#E2EBFA"/>
<path d="M481.385 78.1353H401.539C391.635 78.1353 383.607 85.8415 383.607 95.3477C383.607 104.854 391.635 112.56 401.539 112.56H481.385C491.289 112.56 499.318 104.854 499.318 95.3477C499.318 85.8415 491.289 78.1353 481.385 78.1353Z" fill="#E2EBFA"/>
<path d="M557.821 78.1353H535.458C525.554 78.1353 517.526 85.8415 517.526 95.3477C517.526 104.854 525.554 112.56 535.458 112.56H557.821C567.725 112.56 575.754 104.854 575.754 95.3477C575.754 85.8415 567.725 78.1353 557.821 78.1353Z" fill="#E2EBFA"/>
<path d="M514.659 130.235H413C403.096 130.235 395.067 137.941 395.067 147.447C395.067 156.953 403.096 164.66 413 164.66H514.659C524.563 164.66 532.591 156.953 532.591 147.447C532.591 137.941 524.563 130.235 514.659 130.235Z" fill="#E2EBFA"/>
<path d="M80.2804 253.109H17.9326C8.02869 253.109 0 260.815 0 270.321C0 279.828 8.02869 287.534 17.9326 287.534H80.2804C90.1842 287.534 98.2129 279.828 98.2129 270.321C98.2129 260.815 90.1842 253.109 80.2804 253.109Z" fill="#E2EBFA"/>
<path d="M129.3 307.94H37.3783C30.661 307.94 25.2157 313.168 25.2157 319.616C25.2157 326.065 30.661 331.293 37.3783 331.293H129.3C136.017 331.293 141.463 326.065 141.463 319.616C141.463 313.168 136.017 307.94 129.3 307.94Z" fill="#E2EBFA"/>
<path d="M137.77 287.68L134.911 314.445C134.774 315.855 135.047 317.274 135.701 318.543C136.355 319.812 137.363 320.882 138.612 321.634C139.862 322.385 141.305 322.789 142.779 322.8C144.254 322.811 145.703 322.428 146.965 321.695L173.882 305.744" fill="#B5DAFE"/>
<path d="M338.019 244.942L373.276 252.24C374.834 252.607 376.468 252.559 378 252.102C379.533 251.644 380.907 250.795 381.974 249.644C383.041 248.494 383.762 247.086 384.059 245.572C384.355 244.058 384.217 242.494 383.657 241.05L373.421 210.962" fill="#B5DAFE"/>
<path d="M188.129 307.085C228.329 307.085 260.917 275.799 260.917 237.207C260.917 198.614 228.329 167.328 188.129 167.328C147.93 167.328 115.342 198.614 115.342 237.207C115.342 275.799 147.93 307.085 188.129 307.085Z" fill="white"/>
<path d="M293.893 255.952C344.86 255.952 386.177 216.286 386.177 167.356C386.177 118.426 344.86 78.7608 293.893 78.7608C242.926 78.7608 201.609 118.426 201.609 167.356C201.609 216.286 242.926 255.952 293.893 255.952Z" fill="white"/>
<path d="M160.177 246.708C165.643 246.708 170.074 242.454 170.074 237.207C170.074 231.959 165.643 227.706 160.177 227.706C154.711 227.706 150.28 231.959 150.28 237.207C150.28 242.454 154.711 246.708 160.177 246.708Z" fill="#4278DF"/>
<path d="M188.129 246.708C193.595 246.708 198.026 242.454 198.026 237.207C198.026 231.959 193.595 227.706 188.129 227.706C182.664 227.706 178.233 231.959 178.233 237.207C178.233 242.454 182.664 246.708 188.129 246.708Z" fill="#4278DF"/>
<path d="M216.074 246.708C221.54 246.708 225.971 242.454 225.971 237.207C225.971 231.959 221.54 227.706 216.074 227.706C210.609 227.706 206.178 231.959 206.178 237.207C206.178 242.454 210.609 246.708 216.074 246.708Z" fill="#4278DF"/>
<path d="M265.948 176.857C271.414 176.857 275.845 172.604 275.845 167.356C275.845 162.109 271.414 157.855 265.948 157.855C260.482 157.855 256.052 162.109 256.052 167.356C256.052 172.604 260.482 176.857 265.948 176.857Z" fill="#4278DF"/>
<path d="M293.893 176.857C299.359 176.857 303.79 172.604 303.79 167.356C303.79 162.109 299.359 157.855 293.893 157.855C288.427 157.855 283.997 162.109 283.997 167.356C283.997 172.604 288.427 176.857 293.893 176.857Z" fill="#4278DF"/>
<path d="M321.845 176.857C327.311 176.857 331.742 172.604 331.742 167.356C331.742 162.109 327.311 157.855 321.845 157.855C316.38 157.855 311.949 162.109 311.949 167.356C311.949 172.604 316.38 176.857 321.845 176.857Z" fill="#4278DF"/>
</g>
<defs>
<clipPath id="clip0_104_55">
<rect width="575.754" height="404" fill="white"/>
</clipPath>
</defs>
</svg>
