<svg width="532" height="389" viewBox="0 0 532 389" fill="none" xmlns="http://www.w3.org/2000/svg">
<path d="M235.924 388.832C343.297 388.832 430.34 301.789 430.34 194.416C430.34 87.043 343.297 0 235.924 0C128.551 0 41.5081 87.043 41.5081 194.416C41.5081 301.789 128.551 388.832 235.924 388.832Z" fill="#E2EBFA"/>
<path d="M444.803 75.2029H371.025C361.873 75.2029 354.455 82.62 354.455 91.7694C354.455 100.919 361.873 108.336 371.025 108.336H444.803C453.954 108.336 461.373 100.919 461.373 91.7694C461.373 82.62 453.954 75.2029 444.803 75.2029Z" fill="#E2EBFA"/>
<path d="M515.43 75.2029H494.766C485.615 75.2029 478.197 82.62 478.197 91.7694C478.197 100.919 485.615 108.336 494.766 108.336H515.43C524.581 108.336 532 100.919 532 91.7694C532 82.62 524.581 75.2029 515.43 75.2029Z" fill="#E2EBFA"/>
<path d="M475.548 125.347H381.614C372.463 125.347 365.044 132.764 365.044 141.914C365.044 151.063 372.463 158.48 381.614 158.48H475.548C484.699 158.48 492.117 151.063 492.117 141.914C492.117 132.764 484.699 125.347 475.548 125.347Z" fill="#E2EBFA"/>
<path d="M74.1795 243.61H16.5698C7.41856 243.61 0 251.027 0 260.177C0 269.326 7.41856 276.743 16.5698 276.743H74.1795C83.3308 276.743 90.7493 269.326 90.7493 260.177C90.7493 251.027 83.3308 243.61 74.1795 243.61Z" fill="#E2EBFA"/>
<path d="M119.474 296.384H34.5377C28.331 296.384 23.2994 301.415 23.2994 307.622C23.2994 313.829 28.331 318.86 34.5377 318.86H119.474C125.681 318.86 130.712 313.829 130.712 307.622C130.712 301.415 125.681 296.384 119.474 296.384Z" fill="#E2EBFA"/>
<path d="M223.288 304.953V162.554L331.008 249.617L264.609 249.985L223.288 304.953Z" stroke="white" stroke-width="17.28" stroke-linecap="round" stroke-linejoin="round"/>
<path d="M166.293 218.719L197.56 187.452" stroke="#4278DF" stroke-width="16.74" stroke-miterlimit="10" stroke-linecap="round"/>
<path d="M140.84 160.708H186.951" stroke="#BBD5F9" stroke-width="16.74" stroke-miterlimit="10" stroke-linecap="round"/>
<path d="M165.002 102.61L197.56 134.886" stroke="#4278DF" stroke-width="16.74" stroke-miterlimit="10" stroke-linecap="round"/>
<path d="M223.903 81.21V124.431" stroke="#BBD5F9" stroke-width="16.1" stroke-miterlimit="10" stroke-linecap="round"/>
<path d="M282.188 102.61L249.484 134.886" stroke="#4278DF" stroke-width="16.74" stroke-miterlimit="10" stroke-linecap="round"/>
<path d="M306.786 160.708H259.812" stroke="#BBD5F9" stroke-width="16.74" stroke-miterlimit="10" stroke-linecap="round"/>
</svg>
