<svg width="558" height="408" viewBox="0 0 558 408" fill="none" xmlns="http://www.w3.org/2000/svg">
<path d="M247.454 407.835C360.075 407.835 451.372 316.538 451.372 203.918C451.372 91.297 360.075 0 247.454 0C134.834 0 43.5366 91.297 43.5366 203.918C43.5366 316.538 134.834 407.835 247.454 407.835Z" fill="#E2EBFA"/>
<path d="M312.721 71.4619H180.511C154.986 71.4619 134.294 92.154 134.294 117.679V297.179C134.294 322.704 154.986 343.396 180.511 343.396H312.721C338.246 343.396 358.938 322.704 358.938 297.179V117.679C358.938 92.154 338.246 71.4619 312.721 71.4619Z" fill="white"/>
<path d="M275.913 52.5458H217.333C205.905 52.5458 196.642 61.8096 196.642 73.2371C196.642 84.6646 205.905 93.9285 217.333 93.9285H275.913C287.34 93.9285 296.604 84.6646 296.604 73.2371C296.604 61.8096 287.34 52.5458 275.913 52.5458Z" fill="#4278DF" stroke="white" stroke-width="20" stroke-miterlimit="10"/>
<path d="M466.541 78.8783H389.157C379.559 78.8783 371.778 86.6579 371.778 96.2544C371.778 105.851 379.559 113.631 389.157 113.631H466.541C476.14 113.631 483.921 105.851 483.921 96.2544C483.921 86.6579 476.14 78.8783 466.541 78.8783Z" fill="#E2EBFA"/>
<path d="M540.62 78.8783H518.947C509.348 78.8783 501.567 86.6579 501.567 96.2544C501.567 105.851 509.348 113.631 518.947 113.631H540.62C550.219 113.631 558 105.851 558 96.2544C558 86.6579 550.219 78.8783 540.62 78.8783Z" fill="#E2EBFA"/>
<path d="M498.789 131.473H400.264C390.666 131.473 382.885 139.253 382.885 148.849C382.885 158.446 390.666 166.225 400.264 166.225H498.789C508.387 166.225 516.168 158.446 516.168 148.849C516.168 139.253 508.387 131.473 498.789 131.473Z" fill="#E2EBFA"/>
<path d="M77.8048 255.516H17.3796C7.78112 255.516 0 263.296 0 272.892C0 282.489 7.78112 290.268 17.3796 290.268H77.8048C87.4033 290.268 95.1845 282.489 95.1845 272.892C95.1845 263.296 87.4033 255.516 77.8048 255.516Z" fill="#E2EBFA"/>
<path d="M125.313 310.868H36.2255C29.7154 310.868 24.438 316.146 24.438 322.656C24.438 329.166 29.7154 334.443 36.2255 334.443H125.313C131.823 334.443 137.1 329.166 137.1 322.656C137.1 316.146 131.823 310.868 125.313 310.868Z" fill="#E2EBFA"/>
<path d="M201.532 218.034V218.119C202.788 224.062 205.422 229.628 209.224 234.366C213.025 239.105 217.886 242.884 223.416 245.398L246.57 255.923V243.49H259.684C268.38 243.49 276.719 240.036 282.868 233.887C289.017 227.738 292.471 219.398 292.471 210.702V204.198C292.471 199.892 291.623 195.629 289.976 191.651C288.328 187.673 285.913 184.058 282.868 181.014C279.824 177.969 276.209 175.554 272.231 173.906C268.253 172.259 263.99 171.41 259.684 171.41H233.506C229.2 171.41 224.936 172.259 220.958 173.906C216.98 175.554 213.366 177.969 210.321 181.014C207.277 184.058 204.862 187.673 203.214 191.651C201.566 195.629 200.718 199.892 200.718 204.198V210.751C200.715 213.18 200.981 215.601 201.511 217.971L201.532 218.034ZM259.733 276.271L217.999 257.326C210.6 253.965 204.094 248.912 199.007 242.575C193.92 236.237 190.394 228.792 188.713 220.841C187.972 217.529 187.6 214.145 187.604 210.751V204.198C187.603 198.17 188.79 192.2 191.096 186.63C193.403 181.06 196.784 176 201.046 171.736C205.309 167.473 210.369 164.092 215.938 161.785C221.508 159.477 227.477 158.29 233.506 158.29H259.733C265.764 158.285 271.738 159.469 277.311 161.774C282.885 164.08 287.949 167.461 292.215 171.724C296.481 175.988 299.865 181.05 302.174 186.622C304.483 192.194 305.67 198.167 305.669 204.198V210.751C305.669 216.779 304.482 222.748 302.175 228.317C299.869 233.886 296.487 238.946 292.225 243.208C287.963 247.471 282.903 250.852 277.334 253.159C271.765 255.465 265.796 256.653 259.768 256.653L259.733 276.271Z" fill="#4278DF"/>
</svg>
