<svg id="Layer_1" data-name="Layer 1" xmlns="http://www.w3.org/2000/svg" viewBox="0 0 201.88 250"><defs><style>.cls-1{opacity:0.55;}</style></defs><path class="cls-1" d="M194.82,0H23a7.34,7.34,0,0,0-7.33,7.32V39.55H7.32a7.33,7.33,0,0,0,0,14.65h8.3V78.61H7.32a7.33,7.33,0,0,0,0,14.65h8.3v24.41H7.32a7.33,7.33,0,0,0,0,14.65h8.3v24.41H7.32a7.33,7.33,0,0,0,0,14.65h8.3v24.41H7.32a7.33,7.33,0,0,0,0,14.65h8.3v32.23A7.33,7.33,0,0,0,23,250H194.82a7.32,7.32,0,0,0,7.32-7.32V7.32A7.32,7.32,0,0,0,194.82,0Zm-7.33,235.34H30.27v-24.9h8.3a7.33,7.33,0,1,0,.54-14.65H30.27V171.38h8.3a7.33,7.33,0,1,0,.54-14.65H30.27V132.32h8.3a7.33,7.33,0,1,0,.54-14.65,4.86,4.86,0,0,0-.54,0h-8.3V93.26h8.3a7.33,7.33,0,1,0,.54-14.65,4.86,4.86,0,0,0-.54,0h-8.3V54.2h8.3a7.33,7.33,0,1,0,.54-14.65H30.27V14.65H187.49Z" transform="translate(-0.26 0)"/><path class="cls-1" d="M131.21,128a34.66,34.66,0,1,0-44.66,0c-15.55,9.85-24,29.13-24,47.73a7.33,7.33,0,1,0,14.65.54,4.86,4.86,0,0,0,0-.54c0-19.44,11.87-39.55,31.73-39.55s31.74,20.11,31.74,39.55a7.33,7.33,0,1,0,14.65.54,4.86,4.86,0,0,0,0-.54C155.27,157.16,146.77,137.89,131.21,128Zm-22.33-6.46a20,20,0,1,1,20-20A20,20,0,0,1,108.88,121.58Z" transform="translate(-0.26 0)"/></svg>