<svg width="19" height="22" viewBox="0 0 19 22" fill="none" xmlns="http://www.w3.org/2000/svg">
<path d="M5.41423 0.414154L4.00002 1.82837L5.17168 3.00003H1.00006C0.447061 3.00003 6.10352e-05 3.44703 6.10352e-05 4.00003V6.59003C6.10352e-05 7.11303 0.213062 7.62703 0.583061 7.99703L6.00006 13.414L6.00006 21C6.00006 21.347 6.18006 21.668 6.47506 21.851C6.63506 21.95 6.81706 22 7.00006 22C7.15306 22 7.30606 21.965 7.44706 21.895L11.4471 19.895C11.7861 19.725 12.0001 19.379 12.0001 19L12.0001 13.414L13.7929 11.6212L16.7279 14.5563L18.1422 13.1421L5.41423 0.414154ZM12.3789 10.2072L10.2931 12.293C10.1051 12.48 10.0001 12.734 10.0001 13L10.0001 18.382L8.00006 19.382V13C8.00006 12.734 7.89506 12.48 7.70706 12.293L2.00006 6.59003V5.00003L7.17168 5.00003L12.3789 10.2072Z" fill="#dddddd"/>
<path d="M17.0001 3.00003H10.8285L12.8285 5.00003H16.0011L16.0031 6.58303L15.2073 7.37882L16.6213 8.79282L17.4171 7.99703C17.7871 7.62703 18.0001 7.11303 18.0001 6.59003V4.00003C18.0001 3.44703 17.5531 3.00003 17.0001 3.00003Z" fill="#dddddd"/>
</svg>
