<svg id="Layer_1" data-name="Layer 1" xmlns="http://www.w3.org/2000/svg" viewBox="0 0 225.1 225.11"><defs><style>.cls-1{opacity:0.55;}</style></defs><path class="cls-1" d="M205.31,0H19.78A19.81,19.81,0,0,0,0,19.78V161.35a19.8,19.8,0,0,0,19.78,19.78h59.4a56.32,56.32,0,0,1-11.89,28.44l-1.88,2.34H51a6.6,6.6,0,0,0-.51,13.19,4.34,4.34,0,0,0,.51,0H174.1a6.6,6.6,0,0,0,0-13.19H159.68l-1.87-2.34a56.32,56.32,0,0,1-11.89-28.44h59.39a19.81,19.81,0,0,0,19.79-19.78V19.78A19.81,19.81,0,0,0,205.31,0ZM81.81,211.91a69.72,69.72,0,0,0,10.64-30.78h40.2a69.87,69.87,0,0,0,10.63,30.78Zm130.1-50.56a6.6,6.6,0,0,1-6.6,6.59H19.78a6.6,6.6,0,0,1-6.59-6.59V149.48H211.91Zm0-25.06H13.19V19.78a6.6,6.6,0,0,1,6.59-6.59H205.31a6.6,6.6,0,0,1,6.6,6.59Z" transform="translate(0 0)"/><path class="cls-1" d="M31.21,97H57.55c0,4.54-.06,8.9-.1,12.81a6.61,6.61,0,0,0,6.52,6.7h.09A6.6,6.6,0,0,0,70.64,110c0-2.38.06-7.1.1-12.93h1.89a6.6,6.6,0,0,0,0-13.19h-1.8c.1-16,.15-33.49,0-35.86-.41-4.92-3.34-8.92-7.46-10.2s-8.45.35-11.67,4.31c-3.8,4.66-22.5,38.44-26.21,45.16A6.6,6.6,0,0,0,31.21,97ZM57.73,57c0,6.63,0,16.55-.09,26.83H42.42C48.24,73.42,54,63.38,57.73,57Z" transform="translate(0 0)"/><path class="cls-1" d="M152.47,97h26.34c0,4.54-.07,8.9-.1,12.81a6.6,6.6,0,0,0,6.54,6.66h.05a6.6,6.6,0,0,0,6.6-6.54c0-2.38.06-7.1.1-12.93h1.88a6.6,6.6,0,1,0,.51-13.19,4.34,4.34,0,0,0-.51,0h-1.79c.09-16,.15-33.49-.05-35.86-.41-4.92-3.34-8.92-7.46-10.2s-8.45.35-11.68,4.31c-3.8,4.66-22.49,38.44-26.2,45.16A6.59,6.59,0,0,0,152.47,97ZM179,57c0,6.63,0,16.55-.09,26.83H163.67C169.5,73.42,175.21,63.38,179,57Z" transform="translate(0 0)"/><path class="cls-1" d="M112.55,116.51a25,25,0,0,0,24.92-24.92V62.29a24.92,24.92,0,0,0-49.84,0V91.59A25,25,0,0,0,112.55,116.51ZM100.82,62.29a11.73,11.73,0,0,1,23.46,0v29.3a11.73,11.73,0,0,1-23.46,0Z" transform="translate(0 0)"/></svg>