<svg width="517" height="378" viewBox="0 0 517 378" fill="none" xmlns="http://www.w3.org/2000/svg">
<path d="M229.272 377.869C333.618 377.869 418.207 293.28 418.207 188.934C418.207 84.5888 333.618 0 229.272 0C124.927 0 40.3378 84.5888 40.3378 188.934C40.3378 293.28 124.927 377.869 229.272 377.869Z" fill="#E2EBFA"/>
<path d="M432.261 73.0826H360.563C351.67 73.0826 344.461 80.2905 344.461 89.182C344.461 98.0734 351.67 105.281 360.563 105.281H432.261C441.155 105.281 448.364 98.0734 448.364 89.182C448.364 80.2905 441.155 73.0826 432.261 73.0826Z" fill="#E2EBFA"/>
<path d="M500.897 73.0826H480.816C471.923 73.0826 464.714 80.2905 464.714 89.182C464.714 98.0734 471.923 105.281 480.816 105.281H500.897C509.791 105.281 517 98.0734 517 89.182C517 80.2905 509.791 73.0826 500.897 73.0826Z" fill="#E2EBFA"/>
<path d="M462.139 121.806H370.854C361.961 121.806 354.752 129.014 354.752 137.906C354.752 146.797 361.961 154.005 370.854 154.005H462.139C471.032 154.005 478.242 146.797 478.242 137.906C478.242 129.014 471.032 121.806 462.139 121.806Z" fill="#E2EBFA"/>
<path d="M72.088 236.735H16.1026C7.20939 236.735 0 243.943 0 252.834C0 261.726 7.20939 268.934 16.1026 268.934H72.088C80.9812 268.934 88.1906 261.726 88.1906 252.834C88.1906 243.943 80.9812 236.735 72.088 236.735Z" fill="#E2EBFA"/>
<path d="M116.105 288.02H33.5639C27.5321 288.02 22.6425 292.91 22.6425 298.942C22.6425 304.974 27.5321 309.863 33.5639 309.863H116.105C122.137 309.863 127.027 304.974 127.027 298.942C127.027 292.91 122.137 288.02 116.105 288.02Z" fill="#E2EBFA"/>
<path d="M184.91 186.737L171.59 218.357L161.93 234.824L144.273 269.89L269.506 274.551L319.589 273.218L345.117 226.925L348.114 192.282L184.91 186.737Z" fill="#BBD5F9"/>
<path d="M259.956 110.983H324.932V179.371H185.242L150.001 237.684L142.336 227.458V110.983H259.956Z" fill="#4278DF"/>
<path d="M318.327 281.597H137.981C136.401 281.613 134.835 281.313 133.374 280.713C131.913 280.114 130.586 279.228 129.473 278.107C128.36 276.987 127.483 275.655 126.893 274.19C126.303 272.725 126.012 271.156 126.039 269.577H125.954V101.218C125.954 94.839 128.488 88.7209 132.999 84.2101C137.51 79.6993 143.628 77.1651 150.007 77.1651H222.167C224.851 77.1694 227.458 78.0709 229.571 79.7264L257.031 101.179H318.353C324.733 101.179 330.851 103.713 335.361 108.224C339.872 112.735 342.407 118.853 342.407 125.232V173.339H354.401C356.39 173.338 358.35 173.831 360.102 174.774C361.854 175.717 363.345 177.08 364.44 178.742C365.536 180.403 366.202 182.31 366.378 184.292C366.555 186.274 366.237 188.269 365.452 190.098L329.379 274.258C328.46 276.431 326.922 278.285 324.957 279.59C322.992 280.896 320.686 281.594 318.327 281.597ZM181.985 197.405L156.216 257.544H310.403L336.166 197.431L181.985 197.405ZM150.001 125.245V210.972L163.002 180.626C163.93 178.464 165.471 176.62 167.435 175.325C169.4 174.03 171.701 173.339 174.054 173.339H318.334V125.232L150.001 125.245Z" fill="white"/>
</svg>
