<svg width="568" height="416" viewBox="0 0 568 416" fill="none" xmlns="http://www.w3.org/2000/svg">
<path d="M251.889 415.144C366.528 415.144 459.461 322.211 459.461 207.572C459.461 92.9331 366.528 0 251.889 0C137.25 0 44.317 92.9331 44.317 207.572C44.317 322.211 137.25 415.144 251.889 415.144Z" fill="#E2EBFA"/>
<path d="M474.902 80.2849H396.132C386.361 80.2849 378.44 88.2039 378.44 97.9724C378.44 107.741 386.361 115.66 396.132 115.66H474.902C484.673 115.66 492.593 107.741 492.593 97.9724C492.593 88.2039 484.673 80.2849 474.902 80.2849Z" fill="#E2EBFA"/>
<path d="M550.309 80.2849H528.247C518.476 80.2849 510.556 88.2039 510.556 97.9724C510.556 107.741 518.476 115.66 528.247 115.66H550.309C560.079 115.66 568 107.741 568 97.9724C568 88.2039 560.079 80.2849 550.309 80.2849Z" fill="#E2EBFA"/>
<path d="M507.727 133.822H407.438C397.667 133.822 389.746 141.741 389.746 151.51C389.746 161.278 397.667 169.197 407.438 169.197H507.727C517.498 169.197 525.418 161.278 525.418 151.51C525.418 141.741 517.498 133.822 507.727 133.822Z" fill="#E2EBFA"/>
<path d="M79.1992 260.088H17.6911C7.92057 260.088 0 268.007 0 277.776C0 287.544 7.92057 295.463 17.6911 295.463H79.1992C88.9697 295.463 96.8903 287.544 96.8903 277.776C96.8903 268.007 88.9697 260.088 79.1992 260.088Z" fill="#E2EBFA"/>
<path d="M127.559 316.433H36.8749C30.2481 316.433 24.8761 321.805 24.8761 328.431C24.8761 335.058 30.2481 340.43 36.8749 340.43H127.559C134.185 340.43 139.557 335.058 139.557 328.431C139.557 321.805 134.185 316.433 127.559 316.433Z" fill="#E2EBFA"/>
<path d="M318.325 72.7356H183.746C157.763 72.7356 136.7 93.7985 136.7 119.781V302.498C136.7 328.481 157.763 349.543 183.746 349.543H318.325C344.307 349.543 365.37 328.481 365.37 302.498V119.781C365.37 93.7985 344.307 72.7356 318.325 72.7356Z" fill="white"/>
<path d="M280.857 53.4802H221.228C209.595 53.4802 200.166 62.9101 200.166 74.5424C200.166 86.1747 209.595 95.6046 221.228 95.6046H280.857C292.49 95.6046 301.92 86.1747 301.92 74.5424C301.92 62.9101 292.49 53.4802 280.857 53.4802Z" fill="#4278DF" stroke="white" stroke-width="20" stroke-miterlimit="10"/>
<path d="M251.975 283.829C285.913 283.829 313.426 256.316 313.426 222.378C313.426 188.439 285.913 160.927 251.975 160.927C218.036 160.927 190.524 188.439 190.524 222.378C190.524 256.316 218.036 283.829 251.975 283.829Z" stroke="#BBD5F9" stroke-width="16.33" stroke-miterlimit="10"/>
<path d="M283.172 217.549C284.248 218.215 285.13 219.152 285.73 220.267C286.329 221.381 286.625 222.634 286.587 223.899C286.55 225.164 286.18 226.397 285.515 227.473C284.851 228.55 283.914 229.433 282.8 230.034L260.445 242.061L238.098 254.096C236.983 254.695 235.73 254.991 234.465 254.953C233.2 254.915 231.967 254.545 230.89 253.88C229.813 253.215 228.93 252.279 228.33 251.164C227.73 250.05 227.433 248.797 227.47 247.532L228.227 222.163L228.984 196.787C229.024 195.523 229.395 194.291 230.061 193.215C230.727 192.139 231.664 191.258 232.778 190.659C233.893 190.059 235.145 189.764 236.409 189.802C237.674 189.839 238.907 190.209 239.983 190.874L261.574 204.208L283.172 217.549Z" fill="#4278DF"/>
</svg>
