<svg width="563" height="412" viewBox="0 0 563 412" fill="none" xmlns="http://www.w3.org/2000/svg">
<path d="M249.672 411.489C363.301 411.489 455.416 319.374 455.416 205.745C455.416 92.1151 363.301 0 249.672 0C136.042 0 43.9269 92.1151 43.9269 205.745C43.9269 319.374 136.042 411.489 249.672 411.489Z" fill="#E2EBFA"/>
<path d="M470.722 79.5852H392.644C382.96 79.5852 375.109 87.4344 375.109 97.117C375.109 106.8 382.96 114.649 392.644 114.649H470.722C480.406 114.649 488.257 106.8 488.257 97.117C488.257 87.4344 480.406 79.5852 470.722 79.5852Z" fill="#E2EBFA"/>
<path d="M545.465 79.5852H523.597C513.912 79.5852 506.061 87.4344 506.061 97.117C506.061 106.8 513.912 114.649 523.597 114.649H545.465C555.149 114.649 563 106.8 563 97.117C563 87.4344 555.149 79.5852 545.465 79.5852Z" fill="#E2EBFA"/>
<path d="M503.258 132.651H403.851C394.166 132.651 386.316 140.501 386.316 150.183C386.316 159.866 394.166 167.715 403.851 167.715H503.258C512.943 167.715 520.793 159.866 520.793 150.183C520.793 140.501 512.943 132.651 503.258 132.651Z" fill="#E2EBFA"/>
<path d="M78.502 257.806H17.5354C7.85086 257.806 0 265.655 0 275.338C0 285.02 7.85086 292.869 17.5354 292.869H78.502C88.1865 292.869 96.0374 285.02 96.0374 275.338C96.0374 265.655 88.1865 257.806 78.502 257.806Z" fill="#E2EBFA"/>
<path d="M126.436 313.654H36.5503C29.9819 313.654 24.6572 318.979 24.6572 325.547C24.6572 332.116 29.9819 337.44 36.5503 337.44H126.436C133.004 337.44 138.329 332.116 138.329 325.547C138.329 318.979 133.004 313.654 126.436 313.654Z" fill="#E2EBFA"/>
<path d="M315.523 72.1024H182.128C156.375 72.1024 135.497 92.9799 135.497 118.734V299.842C135.497 325.596 156.375 346.474 182.128 346.474H315.523C341.277 346.474 362.154 325.596 362.154 299.842V118.734C362.154 92.9799 341.277 72.1024 315.523 72.1024Z" fill="white"/>
<path d="M278.378 53.0167H219.273C207.743 53.0167 198.396 62.3636 198.396 73.8935C198.396 85.4234 207.743 94.7702 219.273 94.7702H278.378C289.908 94.7702 299.255 85.4234 299.255 73.8935C299.255 62.3636 289.908 53.0167 278.378 53.0167Z" fill="#4278DF" stroke="white" stroke-width="20" stroke-miterlimit="10"/>
<path d="M312.571 277.642L271.122 236.193" stroke="#4278DF" stroke-width="20.37" stroke-miterlimit="10" stroke-linecap="round"/>
<path d="M236.83 251.937C261.79 251.937 282.024 231.703 282.024 206.743C282.024 181.783 261.79 161.549 236.83 161.549C211.87 161.549 191.636 181.783 191.636 206.743C191.636 231.703 211.87 251.937 236.83 251.937Z" stroke="#4278DF" stroke-width="20.37" stroke-miterlimit="10"/>
</svg>
