<svg width="552" height="404" viewBox="0 0 552 404" fill="none" xmlns="http://www.w3.org/2000/svg">
<path d="M244.793 403.993C356.203 403.993 446.518 313.556 446.518 201.997C446.518 90.4369 356.203 0 244.793 0C133.384 0 43.0686 90.4369 43.0686 201.997C43.0686 313.556 133.384 403.993 244.793 403.993Z" fill="#E2EBFA"/>
<path d="M309.358 70.7888H178.57C153.319 70.7888 132.85 91.2859 132.85 116.57V294.38C132.85 319.664 153.319 340.162 178.57 340.162H309.358C334.609 340.162 355.078 319.664 355.078 294.38V116.57C355.078 91.2859 334.609 70.7888 309.358 70.7888Z" fill="white"/>
<path d="M272.946 52.0508H214.996C203.691 52.0508 194.527 61.2273 194.527 72.5472C194.527 83.8671 203.691 93.0436 214.996 93.0436H272.946C284.251 93.0436 293.415 83.8671 293.415 72.5472C293.415 61.2273 284.251 52.0508 272.946 52.0508Z" fill="#4278DF" stroke="white" stroke-width="20" stroke-miterlimit="10"/>
<path d="M171.129 180.805H312.905" stroke="#B5DAFE" stroke-width="25" stroke-miterlimit="10" stroke-linecap="round"/>
<path d="M171.129 228.366H242.017" stroke="#E4EBF9" stroke-width="25" stroke-miterlimit="10" stroke-linecap="round"/>
<path d="M461.525 78.1353H384.973C375.478 78.1353 367.78 85.8415 367.78 95.3477C367.78 104.854 375.478 112.56 384.973 112.56H461.525C471.02 112.56 478.717 104.854 478.717 95.3477C478.717 85.8415 471.02 78.1353 461.525 78.1353Z" fill="#E2EBFA"/>
<path d="M534.807 78.1353H513.367C503.871 78.1353 496.174 85.8415 496.174 95.3477C496.174 104.854 503.871 112.56 513.367 112.56H534.807C544.303 112.56 552 104.854 552 95.3477C552 85.8415 544.303 78.1353 534.807 78.1353Z" fill="#E2EBFA"/>
<path d="M493.425 130.235H395.961C386.465 130.235 378.768 137.941 378.768 147.447C378.768 156.953 386.465 164.66 395.961 164.66H493.425C502.921 164.66 510.618 156.953 510.618 147.447C510.618 137.941 502.921 130.235 493.425 130.235Z" fill="#E2EBFA"/>
<path d="M76.9682 253.109H17.1927C7.69745 253.109 0 260.815 0 270.321C0 279.828 7.69745 287.534 17.1927 287.534H76.9682C86.4635 287.534 94.1609 279.828 94.1609 270.321C94.1609 260.815 86.4635 253.109 76.9682 253.109Z" fill="#E2EBFA"/>
<path d="M123.965 307.94H35.8361C29.396 307.94 24.1753 313.168 24.1753 319.616C24.1753 326.065 29.396 331.293 35.8361 331.293H123.965C130.405 331.293 135.626 326.065 135.626 319.616C135.626 313.168 130.405 307.94 123.965 307.94Z" fill="#E2EBFA"/>
</svg>
