<svg width="521" height="381" viewBox="0 0 521 381" fill="none" xmlns="http://www.w3.org/2000/svg">
<path d="M231.046 380.792C336.199 380.792 421.442 295.549 421.442 190.396C421.442 85.2432 336.199 0 231.046 0C125.893 0 40.65 85.2432 40.65 190.396C40.65 295.549 125.893 380.792 231.046 380.792Z" fill="#E2EBFA"/>
<path d="M435.606 73.648H363.353C354.391 73.648 347.126 80.9117 347.126 89.8719C347.126 98.8322 354.391 106.096 363.353 106.096H435.606C444.568 106.096 451.833 98.8322 451.833 89.8719C451.833 80.9117 444.568 73.648 435.606 73.648Z" fill="#E2EBFA"/>
<path d="M504.773 73.648H484.536C475.574 73.648 468.309 80.9117 468.309 89.8719C468.309 98.8322 475.574 106.096 484.536 106.096H504.773C513.735 106.096 521 98.8322 521 89.8719C521 80.9117 513.735 73.648 504.773 73.648Z" fill="#E2EBFA"/>
<path d="M465.715 122.755H373.724C364.762 122.755 357.496 130.019 357.496 138.979C357.496 147.94 364.762 155.203 373.724 155.203H465.715C474.677 155.203 481.942 147.94 481.942 138.979C481.942 130.019 474.677 122.755 465.715 122.755Z" fill="#E2EBFA"/>
<path d="M72.6457 238.573H16.2272C7.26517 238.573 0 245.837 0 254.797C0 263.757 7.26517 271.021 16.2272 271.021H72.6457C81.6078 271.021 88.8729 263.757 88.8729 254.797C88.8729 245.837 81.6078 238.573 72.6457 238.573Z" fill="#E2EBFA"/>
<path d="M117.004 290.255H33.8237C27.7453 290.255 22.8177 295.183 22.8177 301.261C22.8177 307.34 27.7453 312.267 33.8237 312.267H117.004C123.082 312.267 128.01 307.34 128.01 301.261C128.01 295.183 123.082 290.255 117.004 290.255Z" fill="#E2EBFA"/>
<path d="M285.82 229.769C285.82 229.769 304.255 243.834 304.255 274.834H330.885L344.374 267.916L337.771 258.089C337.771 258.089 321.688 234.223 321.183 233.883C320.679 233.542 304.085 225.084 304.085 225.084L293.446 222.215L285.82 229.769Z" fill="#BBD5F9"/>
<path d="M285.506 108.526C285.843 111.881 286.011 115.25 286.01 118.622C286.045 143.283 276.884 167.071 260.317 185.339C265.689 188.84 271.796 191.06 278.163 191.826C284.53 192.592 290.989 191.883 297.039 189.756C303.089 187.628 308.569 184.138 313.055 179.555C317.541 174.972 320.914 169.419 322.912 163.325C324.911 157.231 325.481 150.759 324.579 144.409C323.678 138.059 321.329 132.002 317.713 126.705C314.098 121.408 309.313 117.013 303.728 113.86C298.144 110.707 291.909 108.879 285.506 108.52V108.526Z" fill="#4278DF"/>
<path d="M206.918 170.14C230.027 170.14 248.76 151.407 248.76 128.298C248.76 105.189 230.027 86.4555 206.918 86.4555C183.809 86.4555 165.076 105.189 165.076 128.298C165.076 151.407 183.809 170.14 206.918 170.14Z" fill="#4278DF"/>
<path d="M273.792 274.834H134.646L141.249 241.023L150.552 231.197L173.101 217.996C173.101 217.996 195.585 209.362 197.111 209.362H232.658L254.997 224.089L267.693 245.413L273.786 264.712L273.792 274.834Z" fill="#BBD5F9"/>
<path d="M206.918 71.9316C195.775 71.9316 184.882 75.2359 175.617 81.4266C166.352 87.6173 159.131 96.4164 154.867 106.711C150.603 117.006 149.487 128.334 151.661 139.263C153.835 150.192 159.201 160.231 167.08 168.11C174.959 175.989 184.998 181.355 195.927 183.529C206.856 185.703 218.184 184.587 228.479 180.323C238.773 176.059 247.572 168.837 253.763 159.572C259.954 150.307 263.258 139.415 263.258 128.272C263.258 113.329 257.322 98.999 246.757 88.4332C236.191 77.8674 221.86 71.9316 206.918 71.9316ZM173.101 128.272C173.101 121.583 175.084 115.045 178.8 109.484C182.516 103.923 187.798 99.5882 193.977 97.0287C200.156 94.4691 206.956 93.7994 213.516 95.1043C220.075 96.4091 226.101 99.6299 230.83 104.359C235.56 109.089 238.781 115.114 240.085 121.674C241.39 128.234 240.721 135.033 238.161 141.213C235.602 147.392 231.267 152.674 225.706 156.389C220.145 160.105 213.607 162.089 206.918 162.089C197.954 162.089 189.356 158.529 183.015 152.193C176.674 145.857 173.108 137.262 173.101 128.298V128.272Z" fill="white"/>
<path d="M296.066 130.754C292.895 129.138 289.386 128.296 285.827 128.298V105.749C292.946 105.75 299.963 107.436 306.306 110.669C307.009 111.031 307.697 111.404 308.369 111.789C317.311 116.963 324.204 125.051 327.896 134.699C331.588 144.347 331.855 154.971 328.651 164.792C325.448 174.614 318.969 183.037 310.298 188.653C301.627 194.269 291.291 196.737 281.018 195.644C280.245 195.558 279.466 195.46 278.693 195.336C271.671 194.228 265.011 191.476 259.255 187.304L272.541 169.098C275.059 170.884 277.916 172.133 280.937 172.769C283.957 173.404 287.076 173.413 290.099 172.794C293.123 172.176 295.988 170.942 298.516 169.171C301.043 167.4 303.181 165.129 304.795 162.498C306.409 159.867 307.465 156.933 307.899 153.877C308.333 150.821 308.134 147.709 307.316 144.733C306.498 141.757 305.077 138.981 303.142 136.576C301.207 134.172 298.798 132.19 296.066 130.754Z" fill="white"/>
<path d="M330.885 274.834C330.888 268.915 329.724 263.054 327.46 257.585C325.197 252.116 321.877 247.147 317.692 242.962C313.507 238.777 308.538 235.458 303.069 233.194C297.6 230.93 291.739 229.766 285.82 229.769V207.2C293.499 207.2 301.122 208.507 308.363 211.065C309.489 211.463 310.603 211.899 311.704 212.375C328.274 219.241 341.439 232.406 348.305 248.977C348.742 250.077 349.178 251.191 349.615 252.318C352.173 259.558 353.481 267.181 353.48 274.86L330.885 274.834Z" fill="white"/>
<path d="M285.82 274.834H263.31C263.31 259.885 257.372 245.549 246.802 234.979C236.232 224.409 221.896 218.471 206.948 218.471C191.999 218.471 177.663 224.409 167.093 234.979C156.523 245.549 150.585 259.885 150.585 274.834H128.01C127.915 264.411 129.885 254.073 133.808 244.417C137.731 234.76 143.528 225.976 150.864 218.573C158.201 211.169 166.931 205.292 176.552 201.282C186.172 197.271 196.492 195.206 206.915 195.206C217.338 195.206 227.657 197.271 237.278 201.282C246.898 205.292 255.629 211.169 262.965 218.573C270.302 225.976 276.099 234.76 280.022 244.417C283.944 254.073 285.915 264.411 285.82 274.834Z" fill="white"/>
</svg>
