<svg width="152" height="152" viewBox="0 0 152 152" fill="none" xmlns="http://www.w3.org/2000/svg">
<g opacity="0.19" clip-path="url(#clip0)">
<path d="M69.6668 78.0838V9.49999C69.6668 7.75199 68.248 6.33322 66.5 6.33322C29.83 6.33322 0 39.007 0 79.1665C0 119.326 32.6738 152 72.8332 152C90.801 152 100.522 148.745 112.847 138.611C114.171 137.522 114.386 135.577 113.335 134.222L69.6668 78.0838ZM72.8332 145.667C36.1632 145.667 6.33323 115.837 6.33323 79.1667C6.33323 43.6747 31.6222 14.5858 63.3332 12.7555V79.1667C63.3332 79.8698 63.5675 80.5537 64.0045 81.111L106.412 135.635C96.4122 143.273 88.0712 145.667 72.8332 145.667Z" fill="black"/>
<path d="M79.1668 76H148.834C150.582 76 152 74.5812 152 72.8332C152 32.6738 119.326 0 79.1668 0C77.4188 0 76 1.41877 76 3.16677V72.8335C76 74.5812 77.4188 76 79.1668 76ZM82.3332 6.40923C116.489 8.018 143.982 35.511 145.59 69.6665H82.3332V6.40923Z" fill="black"/>
<path d="M148.833 82.3333H85.5001C84.2841 82.3333 83.1631 83.0362 82.6373 84.1382C82.1115 85.2402 82.2701 86.545 83.0363 87.4885L124.203 138.453C124.754 139.143 125.565 139.561 126.445 139.624C126.521 139.631 126.591 139.631 126.667 139.631C127.465 139.631 128.238 139.327 128.827 138.782C143.551 125.045 152 105.627 152 85.5C152 83.752 150.581 82.3333 148.833 82.3333ZM126.939 131.759L92.1311 88.6668H145.591C144.812 104.766 138.149 120.162 126.939 131.759Z" fill="black"/>
</g>
<defs>
<clipPath id="clip0">
<rect width="152" height="152" fill="white"/>
</clipPath>
</defs>
</svg>
