<svg width="14" height="14" viewBox="0 0 14 14" fill="none" xmlns="http://www.w3.org/2000/svg">
<path d="M11 14C9.78661 14 8.6927 13.2691 8.22836 12.1481C7.76402 11.027 8.02069 9.73667 8.87868 8.87868C9.73667 8.02069 11.027 7.76402 12.1481 8.22836C13.2691 8.6927 14 9.78661 14 11C14 11.7956 13.6839 12.5587 13.1213 13.1213C12.5587 13.6839 11.7956 14 11 14ZM3 14C1.34315 14 0 12.6569 0 11C0 9.34315 1.34315 8 3 8C4.65685 8 6 9.34315 6 11C6 11.7956 5.68393 12.5587 5.12132 13.1213C4.55871 13.6839 3.79565 14 3 14ZM11 6C9.34315 6 8 4.65685 8 3C8 1.34315 9.34315 0 11 0C12.6569 0 14 1.34315 14 3C14 4.65685 12.6569 6 11 6ZM3 6C1.34315 6 0 4.65685 0 3C0 1.34315 1.34315 0 3 0C4.65685 0 6 1.34315 6 3C6 3.79565 5.68393 4.55871 5.12132 5.12132C4.55871 5.68393 3.79565 6 3 6Z" fill="#4278DF"/>
</svg>
