<svg width="20" height="20" viewBox="0 0 20 20" fill="none" xmlns="http://www.w3.org/2000/svg">
<path d="M9.99999 20C5.05667 19.9349 1.06515 15.9433 0.999992 11C1.06515 6.05669 5.05667 2.06517 9.99999 2.00002C14.9433 2.06517 18.9348 6.05669 19 11C18.9348 15.9433 14.9433 19.9349 9.99999 20ZM9.99999 4.00002C6.15516 4.05063 3.05061 7.15518 2.99999 11C3.05061 14.8448 6.15516 17.9494 9.99999 18C13.8448 17.9494 16.9494 14.8448 17 11C16.9494 7.15518 13.8448 4.05063 9.99999 4.00002ZM11 16H8.99999V12H4.99999V10H8.99999V6.00002H11V10H15V12H11V16ZM18.292 4.70802L15.283 1.70802L16.692 0.291016L19.702 3.29102L18.292 4.70702V4.70802ZM1.70899 4.70802L0.291992 3.29102L3.28299 0.291016L4.69799 1.70702L1.70899 4.70702V4.70802Z" fill="#4278DF"/>
</svg>
