<svg width="12" height="12" viewBox="0 0 12 12" fill="none" xmlns="http://www.w3.org/2000/svg">
<path d="M9 11.25C8.08996 11.25 7.26953 10.7018 6.92127 9.86104C6.57301 9.02027 6.76551 8.05251 7.40901 7.40901C8.05251 6.76551 9.02027 6.57301 9.86104 6.92127C10.7018 7.26953 11.25 8.08996 11.25 9C11.25 9.59674 11.0129 10.169 10.591 10.591C10.169 11.0129 9.59674 11.25 9 11.25ZM3 11.25C1.75736 11.25 0.75 10.2426 0.75 9C0.75 7.75736 1.75736 6.75 3 6.75C4.24264 6.75 5.25 7.75736 5.25 9C5.25 9.59674 5.01295 10.169 4.59099 10.591C4.16903 11.0129 3.59674 11.25 3 11.25ZM9 5.25C7.75736 5.25 6.75 4.24264 6.75 3C6.75 1.75736 7.75736 0.75 9 0.75C10.2426 0.75 11.25 1.75736 11.25 3C11.25 4.24264 10.2426 5.25 9 5.25ZM3 5.25C1.75736 5.25 0.75 4.24264 0.75 3C0.75 1.75736 1.75736 0.75 3 0.75C4.24264 0.75 5.25 1.75736 5.25 3C5.25 3.59674 5.01295 4.16903 4.59099 4.59099C4.16903 5.01295 3.59674 5.25 3 5.25Z" fill="#A7AFBD"/>
</svg>
