<svg width="16" height="13" viewBox="0 0 16 13" fill="none" xmlns="http://www.w3.org/2000/svg">
<path d="M12.5 13H1.25C1.05094 13.0021 0.859514 12.9235 0.719247 12.7823C0.57898 12.641 0.501797 12.449 0.50525 12.25H0.5V1.75C0.5 0.921573 1.17157 0.25 2 0.25H6.5C6.66752 0.25016 6.83016 0.306398 6.962 0.40975L8.675 1.75H12.5C13.3284 1.75 14 2.42157 14 3.25V6.25H14.75C15.0021 6.25003 15.2373 6.37671 15.3761 6.58719C15.5148 6.79767 15.5386 7.06379 15.4393 7.2955L13.1893 12.5455C13.0711 12.8212 12.8 13 12.5 13ZM3.995 7.75L2.38775 11.5H12.0058L13.613 7.75H3.995ZM2 3.25V8.5975L2.81075 6.7045C2.92894 6.4288 3.20003 6.25003 3.5 6.25H12.5V3.25H2Z" fill="#A7AFBD"/>
</svg>
