<svg width="16" height="16" viewBox="0 0 16 16" fill="none" xmlns="http://www.w3.org/2000/svg">
<path d="M7.99999 15.5C4.2925 15.4511 1.29886 12.4575 1.24999 8.75001C1.29886 5.04252 4.2925 2.04888 7.99999 2.00001C11.7075 2.04888 14.7011 5.04252 14.75 8.75001C14.7011 12.4575 11.7075 15.4511 7.99999 15.5ZM7.99999 3.50001C5.11637 3.53798 2.78796 5.86639 2.74999 8.75001C2.78796 11.6336 5.11637 13.962 7.99999 14C10.8836 13.962 13.212 11.6336 13.25 8.75001C13.212 5.86639 10.8836 3.53798 7.99999 3.50001ZM8.74999 12.5H7.24999V9.50001H4.24999V8.00001H7.24999V5.00001H8.74999V8.00001H11.75V9.50001H8.74999V12.5ZM14.219 4.03101L11.9622 1.78101L13.019 0.718262L15.2765 2.96826L14.219 4.03026V4.03101ZM1.78174 4.03101L0.718994 2.96826L2.96224 0.718262L4.02349 1.78026L1.78174 4.03026V4.03101Z" fill="#A7AFBD"/>
</svg>
