<svg width="12" height="12" viewBox="0 0 12 12" fill="none" xmlns="http://www.w3.org/2000/svg">
<path d="M6.6 12H5.4V10.2H6.6V12ZM9.8184 10.6668L8.5458 9.3942L9.3942 8.5458L10.6674 9.819L9.8196 10.6668H9.8184ZM2.1816 10.6668L1.3326 9.8184L2.6046 8.5452L3.4536 9.3936L2.1816 10.6662V10.6668ZM6 9.0042C4.34098 9.00354 2.99656 7.65822 2.997 5.9992C2.99744 4.34018 4.34258 2.99558 6.0016 2.9958C7.66062 2.99602 9.0054 4.34098 9.0054 6C9.00375 7.65896 7.65896 9.00321 6 9.0042ZM6 4.1958C5.00372 4.19646 4.19656 5.00452 4.197 6.0008C4.19744 6.99708 5.00532 7.80442 6.0016 7.8042C6.99788 7.80398 7.8054 6.99628 7.8054 6C7.80441 5.00351 6.99649 4.19613 6 4.1958ZM12 6.6H10.2V5.4H12V6.6ZM1.8 6.6H0V5.4H1.8V6.6ZM9.3936 3.4548L8.5458 2.6058L9.8184 1.3326L10.6674 2.1816L9.3942 3.4542L9.3936 3.4548ZM2.6058 3.4548L1.3338 2.1822L2.1828 1.3338L3.4548 2.607L2.6064 3.4542L2.6058 3.4548ZM6.6 1.8H5.4V0H6.6V1.8Z" fill="#4278DF"/>
</svg>
