<svg width="29" height="27" viewBox="0 0 29 27" fill="none" xmlns="http://www.w3.org/2000/svg">
<path d="M10.15 0C6.14594 0 2.9 3.35786 2.9 7.5C2.9 11.6421 6.14594 15 10.15 15C14.1541 15 17.4 11.6421 17.4 7.5C17.4 3.35786 14.1541 0 10.15 0ZM5.8 7.5C5.8 5.01472 7.74756 3 10.15 3C12.5524 3 14.5 5.01472 14.5 7.5C14.5 9.98528 12.5524 12 10.15 12C7.74756 12 5.8 9.98528 5.8 7.5Z" fill="#FF9B61"/>
<path d="M21.6172 7.82742C21.2093 7.61226 20.7579 7.50009 20.3 7.50009V4.50009C21.2158 4.50009 22.1186 4.72435 22.9345 5.15467C23.0244 5.20207 23.1129 5.25182 23.2 5.30385C23.9038 5.72421 24.5154 6.29353 24.9941 6.97583C25.532 7.74258 25.8868 8.63021 26.0293 9.56605C26.1719 10.5019 26.0982 11.4594 25.8142 12.3601C25.5303 13.2608 25.0443 14.0792 24.3958 14.7482C23.7474 15.4172 22.9551 15.9179 22.0836 16.2092C21.3082 16.4685 20.4897 16.5554 19.6816 16.4658C19.5816 16.4547 19.4818 16.4409 19.3822 16.4244C18.4785 16.2746 17.622 15.9057 16.8825 15.3478L16.881 15.3467L18.5905 12.9233C18.9604 13.2026 19.389 13.3872 19.8411 13.4621C20.2932 13.5371 20.7561 13.5002 21.1918 13.3545C21.6275 13.2089 22.0237 12.9585 22.3479 12.624C22.6721 12.2895 22.9151 11.8804 23.057 11.43C23.199 10.9797 23.2358 10.5009 23.1646 10.033C23.0933 9.56513 22.9159 9.12133 22.647 8.73797C22.378 8.35461 22.0251 8.04258 21.6172 7.82742Z" fill="#FF9B61"/>
<path d="M26.0973 27C26.0973 26.2124 25.9473 25.4326 25.656 24.705C25.3646 23.9774 24.9376 23.3163 24.3993 22.7594C23.861 22.2025 23.2219 21.7607 22.5185 21.4594C21.8152 21.158 21.0613 21.0028 20.3 21.0028V18C21.289 18 22.2697 18.1744 23.2 18.5147C23.3444 18.5675 23.4875 18.6243 23.6293 18.6851C24.6849 19.1374 25.644 19.8003 26.4518 20.636C27.2597 21.4718 27.9005 22.4639 28.3378 23.5558C28.3965 23.7025 28.4514 23.8506 28.5024 24C28.8314 24.9624 29 25.9769 29 27H26.0973Z" fill="#FF9B61"/>
<path d="M20.3 27H17.4C17.4 22.8579 14.1541 19.5 10.15 19.5C6.14594 19.5 2.9 22.8579 2.9 27H0C0 21.201 4.54431 16.5 10.15 16.5C15.7557 16.5 20.3 21.201 20.3 27Z" fill="#FF9B61"/>
</svg>
