<svg width="29" height="36" viewBox="0 0 29 36" fill="none" xmlns="http://www.w3.org/2000/svg">
<path d="M6.50688 6.18969C5.09313 4.77594 5.09313 2.47406 6.50688 1.06031C7.92063 -0.353437 10.2225 -0.353437 11.6363 1.06031C13.05 2.47406 13.05 4.77594 11.6363 6.18969C10.2044 7.62156 7.92063 7.62156 6.50688 6.18969ZM3.625 25.3841V9.07156H0V25.3841C0 30.3866 4.06 34.4466 9.0625 34.4466H19.9375V30.8216H9.0625C6.05375 30.8216 3.625 28.3928 3.625 25.3841ZM29 32.7609L19.8106 23.5716H13.5938V16.9016C16.1313 18.9859 20.1187 20.8166 23.5625 20.8166V16.9016C20.5538 16.9378 17.0194 15.3247 15.0981 13.2041L12.5606 10.3947C12.2163 10.0141 11.7812 9.70594 11.31 9.48844C10.7844 9.23469 10.1862 9.07156 9.57 9.07156H9.51562C7.26813 9.07156 5.4375 10.9022 5.4375 13.1497V23.5716C5.4375 26.5803 7.86625 29.0091 10.875 29.0091H20.0644L26.4081 35.3528L29 32.7609Z" fill="#F86F8C"/>
</svg>
