<svg width="29" height="25" viewBox="0 0 29 25" fill="none" xmlns="http://www.w3.org/2000/svg">
<path d="M23.2001 24.9999H1.45001C1.06516 25.0039 0.695064 24.8499 0.423879 24.5729C0.152695 24.296 0.00347366 23.9195 0.0101501 23.5293H0V2.94116C0 1.3168 1.29838 0 2.90002 0H11.6001C11.9239 0.000313218 12.2384 0.110584 12.4933 0.313233L15.8051 2.94116H23.2001C24.8018 2.94116 26.1001 4.25796 26.1001 5.88232V11.7646H27.5501C28.0376 11.7647 28.4923 12.0131 28.7606 12.4258C29.0289 12.8385 29.0747 13.3603 28.8827 13.8146L24.5327 24.1087C24.3042 24.6493 23.7801 24.9999 23.2001 24.9999ZM6.75704 14.7058L3.64967 22.0587H22.2446L25.3519 14.7058H6.75704ZM2.90002 5.88232V16.3675L4.46747 12.6558C4.69597 12.1152 5.22009 11.7647 5.80003 11.7646H23.2001V5.88232H2.90002Z" fill="#9C27B0"/>
</svg>
