<svg width="261" height="178" viewBox="0 0 522 357" fill="none" xmlns="http://www.w3.org/2000/svg">
<path d="M477.915 119.455C487.933 108.457 494.265 94.6017 496.025 79.827C497.785 65.0522 494.884 50.0968 487.73 37.0518C480.575 24.0068 469.524 13.5245 456.122 7.07067C442.72 0.616809 427.636 -1.48595 412.98 1.05645C398.324 3.59885 384.829 10.6593 374.382 21.2505C363.935 31.8417 357.057 45.4341 354.711 60.1271C352.366 74.8201 354.669 89.8792 361.299 103.198C367.929 116.518 378.555 127.431 391.69 134.413C384.519 141.51 378.828 149.961 374.945 159.274C371.062 168.587 369.065 178.579 369.07 188.67V204.022H323.191C315.852 204.022 308.619 205.783 302.101 209.158C295.583 212.534 289.969 217.424 285.731 223.419C281.494 229.413 278.756 236.338 277.747 243.61C276.739 250.883 277.49 258.291 279.936 265.213H242.064C244.51 258.291 245.261 250.883 244.253 243.61C243.244 236.338 240.506 229.413 236.269 223.419C232.031 217.424 226.417 212.534 219.899 209.158C213.381 205.783 206.148 204.022 198.809 204.022H152.93V188.724C152.935 178.633 150.938 168.642 147.055 159.328C143.172 150.015 137.481 141.565 130.31 134.468C143.454 127.486 154.087 116.57 160.724 103.245C167.36 89.9207 169.668 74.8545 167.323 60.1538C164.978 45.453 158.099 31.8529 147.647 21.2556C137.195 10.6583 123.693 3.59382 109.03 1.05014C94.3673 -1.49353 79.276 0.610833 65.8674 7.06893C52.4587 13.527 41.4033 24.0158 34.2471 37.0684C27.091 50.121 24.1921 65.0846 25.956 79.8664C27.7198 94.6481 34.0582 108.509 44.0845 119.51C30.9277 125.673 19.7959 135.454 11.9895 147.71C4.18318 159.966 0.024701 174.191 0 188.724V341.702C0 345.759 1.61121 349.65 4.4792 352.519C7.34719 355.388 11.237 357 15.293 357H506.707C510.763 357 514.653 355.388 517.521 352.519C520.389 349.65 522 345.759 522 341.702V188.724C521.986 174.182 517.832 159.945 510.025 147.678C502.218 135.412 491.081 125.622 477.915 119.455ZM384.363 71.4406C384.363 63.3723 386.755 55.4852 391.236 48.7766C395.717 42.068 402.086 36.8393 409.538 33.7517C416.99 30.6641 425.19 29.8562 433.1 31.4303C441.011 33.0043 448.278 36.8896 453.981 42.5948C459.685 48.3 463.569 55.5688 465.142 63.4821C466.716 71.3954 465.908 79.5978 462.822 87.0519C459.735 94.5061 454.508 100.877 447.801 105.36C441.095 109.842 433.21 112.235 425.145 112.235C414.329 112.235 403.956 107.937 396.308 100.286C388.66 92.6361 384.363 82.2599 384.363 71.4406ZM96.8555 30.6464C104.921 30.6464 112.806 33.039 119.512 37.5215C126.219 42.004 131.446 48.3752 134.532 55.8293C137.619 63.2835 138.427 71.4859 136.853 79.3992C135.28 87.3125 131.396 94.5813 125.692 100.286C119.989 105.992 112.722 109.877 104.812 111.451C96.9007 113.025 88.7009 112.217 81.2491 109.13C73.7973 106.042 67.4282 100.813 62.9471 94.1047C58.466 87.3961 56.0742 79.509 56.0742 71.4406C56.0742 60.6213 60.3708 50.2452 68.0188 42.5948C75.6667 34.9444 86.0396 30.6464 96.8555 30.6464ZM76.4648 204.022C72.4089 204.022 68.5191 205.633 65.6511 208.502C62.7831 211.371 61.1719 215.262 61.1719 219.32V239.717C61.1893 251.921 65.1785 263.787 72.5361 273.522C79.8938 283.257 90.2198 290.33 101.953 293.674V326.404H30.5859V188.724C30.5859 176.552 35.4196 164.879 44.0235 156.272C52.6275 147.666 64.297 142.83 76.4648 142.83C88.6327 142.83 100.302 147.666 108.906 156.272C117.51 164.879 122.344 176.552 122.344 188.724V219.32C122.344 223.377 123.955 227.268 126.823 230.137C129.691 233.006 133.581 234.617 137.637 234.617H198.809C202.865 234.617 206.754 236.229 209.622 239.098C212.49 241.967 214.102 245.858 214.102 249.915C214.102 253.972 212.49 257.864 209.622 260.732C206.754 263.601 202.865 265.213 198.809 265.213H117.246C110.488 265.206 104.01 262.517 99.2311 257.737C94.4527 252.957 91.765 246.477 91.7578 239.717V219.32C91.7578 215.262 90.1466 211.371 87.2786 208.502C84.4106 205.633 80.5208 204.022 76.4648 204.022ZM389.461 326.404H132.539V295.809H389.461V326.404ZM491.414 326.404H420.047V293.674C431.78 290.33 442.106 283.257 449.464 273.522C456.822 263.787 460.811 251.921 460.828 239.717V219.32C460.828 215.262 459.217 211.371 456.349 208.502C453.481 205.633 449.591 204.022 445.535 204.022C441.479 204.022 437.589 205.633 434.721 208.502C431.853 211.371 430.242 215.262 430.242 219.32V239.717C430.235 246.477 427.547 252.957 422.769 257.737C417.991 262.517 411.512 265.206 404.754 265.213H323.191C319.135 265.213 315.246 263.601 312.378 260.732C309.51 257.864 307.898 253.972 307.898 249.915C307.898 245.858 309.51 241.967 312.378 239.098C315.246 236.229 319.135 234.617 323.191 234.617H384.363C388.419 234.617 392.309 233.006 395.177 230.137C398.045 227.268 399.656 223.377 399.656 219.32V188.724C399.656 176.552 404.49 164.879 413.094 156.272C421.698 147.666 433.367 142.83 445.535 142.83C457.703 142.83 469.372 147.666 477.976 156.272C486.58 164.879 491.414 176.552 491.414 188.724V326.404Z" fill="#C0C9D6"/>
</svg>
