<svg width="171" height="208" viewBox="0 0 343 416" fill="none" xmlns="http://www.w3.org/2000/svg">
<path d="M76.7462 72.8347C60.0716 56.1989 60.0716 29.1125 76.7462 12.4768C93.4209 -4.15893 120.571 -4.15893 137.245 12.4768C153.92 29.1125 153.92 56.1989 137.245 72.8347C120.357 89.6837 93.4209 89.6837 76.7462 72.8347ZM42.7556 298.697V106.746H0V298.697C0 357.562 47.8862 405.336 106.889 405.336H235.156V362.68H106.889C71.4018 362.68 42.7556 334.101 42.7556 298.697ZM342.044 385.501L233.659 277.369H160.333V198.882C190.262 223.409 237.293 244.951 277.911 244.951V198.882C242.424 199.309 200.737 180.327 178.077 155.374L148.148 122.315C144.086 117.836 138.956 114.211 133.397 111.651C127.198 108.665 120.143 106.746 112.875 106.746H112.233C85.7249 106.746 64.1333 128.287 64.1333 154.734V277.369C64.1333 312.773 92.7796 341.352 128.267 341.352H236.652L311.474 416L342.044 385.501Z" fill="#C0C9D6"/>
</svg>
