<svg width="239" height="239" viewBox="0 0 239 239" fill="none" xmlns="http://www.w3.org/2000/svg">
<path d="M119.499 234C104.463 234 89.574 231.038 75.6821 225.284C61.7906 219.53 49.1679 211.096 38.5359 200.463C27.9035 189.831 19.4698 177.209 13.7154 163.317C7.96146 149.425 5 134.536 5 119.5C5 104.463 7.96146 89.5743 13.7154 75.6828C19.4698 61.7908 27.9035 49.1686 38.5359 38.5361C49.1684 27.9041 61.7906 19.4698 75.6821 13.7159C89.574 7.96147 104.463 5 119.499 5C134.536 5 149.425 7.96147 163.317 13.7159C177.208 19.4698 189.83 27.9041 200.463 38.5361C211.095 49.1686 219.531 61.7908 225.282 75.6828C231.038 89.5743 234 104.463 234 119.5C234 134.536 231.038 149.425 225.282 163.317C219.527 177.209 211.095 189.831 200.463 200.463C189.83 211.096 177.208 219.53 163.316 225.284C149.425 231.038 134.536 234 119.499 234Z" stroke="#9EF6F8" stroke-width="10" stroke-linecap="round"/>
<path d="M119.44 234C102.488 234 85.7474 230.232 70.4288 222.968C55.1097 215.704 41.595 205.125 30.8613 191.997C20.1277 178.869 12.4434 163.519 8.36376 147.056C4.2837 130.594 3.91049 113.43 7.27044 96.8051C10.6304 80.1806 17.64 64.5106 27.7924 50.9275C37.9449 37.3444 50.9869 26.1877 65.9755 18.2636C80.964 10.3396 97.5249 5.84625 114.461 5.1085C131.397 4.37029 148.286 7.40626 163.906 13.9966" stroke="#1EC1C3" stroke-width="10" stroke-linecap="round"/>
<path d="M119.995 212.215C107.833 212.215 95.791 209.819 84.5553 205.165C73.3199 200.511 63.1107 193.69 54.5115 185.091C45.912 176.491 39.0908 166.282 34.4367 155.047C29.7829 143.811 27.3877 131.769 27.3877 119.607C27.3877 107.446 29.7829 95.4036 34.4367 84.1682C39.0908 72.9324 45.912 62.7235 54.5115 54.1239C63.111 45.5248 73.3199 38.7032 84.5553 34.0494C95.791 29.3952 107.833 27 119.995 27C132.156 27 144.198 29.3952 155.434 34.0494C166.669 38.7032 176.878 45.5248 185.478 54.1239C194.077 62.7235 200.9 72.9324 205.552 84.1682C210.207 95.4036 212.603 107.446 212.603 119.607C212.603 131.769 210.207 143.811 205.552 155.047C200.896 166.282 194.077 176.491 185.478 185.091C176.878 193.69 166.669 200.511 155.434 205.165C144.198 209.819 132.156 212.215 119.995 212.215Z" stroke="#FFDEB8" stroke-opacity="0.65" stroke-width="10" stroke-linecap="round"/>
<path d="M119.488 212.215C103.874 212.215 88.5134 208.257 74.8386 200.708C61.1641 193.161 49.6206 182.269 41.2844 169.049C32.9478 155.829 28.0901 140.711 27.163 125.104C26.2364 109.496 29.2713 93.9084 35.9845 79.7923C42.6976 65.6761 52.871 53.492 65.5561 44.3749C78.2413 35.2578 93.025 29.5048 108.53 27.6525C124.034 25.7998 139.755 27.9078 154.226 33.7802C168.698 39.6525 181.449 49.0978 191.291 61.2359" stroke="#EBAA45" stroke-width="10" stroke-linecap="round"/>
<path d="M119.72 190.441C110.433 190.441 101.237 188.612 92.6566 185.058C84.0766 181.504 76.2802 176.295 69.7134 169.728C63.1463 163.161 57.9372 155.364 54.383 146.784C50.8291 138.204 49 129.008 49 119.721C49 110.433 50.8291 101.237 54.383 92.6571C57.9372 84.0768 63.1463 76.2806 69.7134 69.7135C76.2805 63.1466 84.0766 57.9373 92.6566 54.3833C101.237 50.8291 110.433 49 119.72 49C129.007 49 138.204 50.8291 146.784 54.3833C155.364 57.9373 163.16 63.1466 169.727 69.7135C176.294 76.2806 181.505 84.0768 185.057 92.6571C188.612 101.237 190.441 110.433 190.441 119.721C190.441 129.008 188.612 138.204 185.057 146.784C181.502 155.364 176.294 163.161 169.727 169.728C163.16 176.295 155.364 181.504 146.784 185.058C138.204 188.612 129.007 190.441 119.72 190.441Z" stroke="#FFD2DA" stroke-opacity="0.89" stroke-width="10" stroke-linecap="round"/>
<path d="M119.721 190.442C104.096 190.442 88.9105 185.267 76.5367 175.726C64.163 166.185 55.2971 152.815 51.3243 137.703C47.3514 122.591 48.4949 106.59 54.576 92.1964C60.6574 77.8032 71.334 65.8293 84.9388 58.1444C98.5436 50.4599 114.31 47.4969 129.777 49.7187C145.243 51.9405 159.538 59.2216 170.43 70.4256C181.321 81.6291 188.195 96.1243 189.979 111.647C191.763 127.17 188.356 142.847 180.29 156.229" stroke="#F86F8C" stroke-width="10" stroke-linecap="round"/>
</svg>
