<svg width="16" height="16" viewBox="0 0 16 16" fill="none" xmlns="http://www.w3.org/2000/svg">
  <path d="M8 15.5C3.85786 15.5 0.5 12.1421 0.5 8C0.5 3.85786 3.85786 0.5 8 0.5C12.1421 0.5 15.5 3.85786 15.5 8C15.4955 12.1403 12.1403 15.4955 8 15.5ZM7.988 14H8C11.3125 13.9967 13.9957 11.3095 13.994 7.997C13.9923 4.68447 11.3065 2 7.994 2C4.68146 2 1.99566 4.68447 1.994 7.997C1.99234 11.3095 4.67546 13.9967 7.988 14ZM6.5 11.75L3.5 8.75L4.5575 7.6925L6.5 9.6275L11.4425 4.685L12.5 5.75L6.5 11.75Z" fill="white"/>
</svg>
