<svg width="17" height="16" viewBox="0 0 17 16" fill="none" xmlns="http://www.w3.org/2000/svg">
  <path d="M13.6599 13.6599C14.779 12.5408 15.5411 11.1151 15.8498 9.56286C16.1586 8.01067 16.0001 6.40178 15.3945 4.93964C14.7889 3.4775 13.7632 2.22779 12.4474 1.34855C11.1315 0.469297 9.5844 7.05165e-08 8.0018 0C6.41919 -7.05165e-08 4.87213 0.469297 3.55624 1.34855C2.24035 2.22779 1.21474 3.4775 0.609104 4.93964C0.00346744 6.40178 -0.154995 8.01067 0.153756 9.56286C0.462506 11.1151 1.2246 12.5408 2.34367 13.6599C3.84542 15.1584 5.88029 16 8.00179 16C10.1233 16 12.1582 15.1584 13.6599 13.6599ZM3.28669 3.28669C4.21925 2.35413 5.40741 1.71905 6.7009 1.46176C7.9944 1.20447 9.33514 1.33652 10.5536 1.84122C11.772 2.34591 12.8135 3.20059 13.5462 4.29716C14.2789 5.39373 14.67 6.68295 14.67 8.00179C14.67 9.32063 14.2789 10.6098 13.5462 11.7064C12.8135 12.803 11.772 13.6577 10.5536 14.1624C9.33514 14.6671 7.9944 14.7991 6.7009 14.5418C5.4074 14.2845 4.21925 13.6495 3.28669 12.7169C2.03797 11.4654 1.33667 9.7697 1.33667 8.00179C1.33667 6.23388 2.03797 4.53816 3.28669 3.28669ZM10.3593 10.3593C10.6933 10.0267 10.8987 9.58661 10.9392 9.11704C10.9797 8.64746 10.8527 8.17869 10.5808 7.79376C10.3088 7.40883 9.90933 7.13257 9.45318 7.01393C8.99704 6.89528 8.51362 6.9419 8.08855 7.14553L6.58727 5.64424C6.46221 5.51919 6.29261 5.44894 6.11575 5.44894C5.9389 5.44894 5.7693 5.51919 5.64425 5.64424C5.51919 5.76929 5.44894 5.9389 5.44894 6.11575C5.44894 6.2926 5.51919 6.46221 5.64425 6.58726L7.14553 8.08855C6.94191 8.51362 6.89529 8.99703 7.01393 9.45318C7.13258 9.90933 7.40883 10.3088 7.79376 10.5807C8.17869 10.8527 8.64746 10.9797 9.11704 10.9392C9.58662 10.8987 10.0267 10.6932 10.3593 10.3593ZM8.47331 8.4733C8.56656 8.38005 8.68538 8.31654 8.81473 8.29081C8.94408 8.26508 9.07815 8.27829 9.2 8.32875C9.32184 8.37922 9.42598 8.46469 9.49925 8.57435C9.57252 8.68401 9.61163 8.81293 9.61163 8.94481C9.61163 9.0767 9.57252 9.20562 9.49925 9.31528C9.42598 9.42493 9.32184 9.5104 9.19999 9.56087C9.07815 9.61134 8.94408 9.62454 8.81473 9.59881C8.68538 9.57309 8.56656 9.50958 8.47331 9.41632C8.34825 9.29127 8.278 9.12166 8.278 8.94481C8.278 8.76796 8.34825 8.59835 8.47331 8.4733Z" fill="#1EC1C3"/>
</svg>
