<svg width="16" height="16" viewBox="0 0 16 16" fill="none" xmlns="http://www.w3.org/2000/svg">
  <path d="M8.74847 15.5H7.24847V13.25H8.74847V15.5ZM12.7715 13.8335L11.1807 12.2428L12.2412 11.1823L13.8327 12.7738L12.773 13.8335H12.7715ZM3.22547 13.8335L2.16422 12.773L3.75422 11.1815L4.81547 12.242L3.22547 13.8328V13.8335ZM7.99847 11.7552C5.9247 11.7544 4.24417 10.0728 4.24472 7.999C4.24528 5.92523 5.9267 4.24447 8.00047 4.24475C10.0742 4.24503 11.7552 5.92623 11.7552 8C11.7532 10.0737 10.0722 11.754 7.99847 11.7552ZM7.99847 5.74475C6.75313 5.74558 5.74417 6.75565 5.74472 8.001C5.74528 9.24634 6.75513 10.2555 8.00047 10.2552C9.24582 10.255 10.2552 9.24535 10.2552 8C10.254 6.75439 9.24409 5.74516 7.99847 5.74475ZM15.4985 8.75H13.2485V7.25H15.4985V8.75ZM2.74847 8.75H0.498474V7.25H2.74847V8.75ZM12.2405 4.8185L11.1807 3.75725L12.7715 2.16575L13.8327 3.227L12.2412 4.81775L12.2405 4.8185ZM3.75572 4.8185L2.16572 3.22775L3.22697 2.16725L4.81697 3.75875L3.75647 4.81775L3.75572 4.8185ZM8.74847 2.75H7.24847V0.5H8.74847V2.75Z" fill="#4278DF"/>
</svg>
