<svg width="16" height="15" viewBox="0 0 16 15" fill="none" xmlns="http://www.w3.org/2000/svg">
<path d="M3.0125 3.23002C2.3375 2.75002 2.1725 1.82002 2.645 1.13752C3.1175 0.462522 4.055 0.297522 4.7375 0.770022C5.4125 1.25002 5.5775 2.18002 5.105 2.86252C4.625 3.53752 3.695 3.70252 3.0125 3.23002ZM11 13.25H5.6975C4.5875 13.25 3.6425 12.44 3.4775 11.345L2 4.25002H0.5L1.9925 11.57C2.2775 13.4 3.8525 14.75 5.705 14.75H11V13.25ZM11.1725 10.25H7.5125L6.74 7.17502C7.925 7.84252 9.2 8.33002 10.6025 8.09002V6.49252C9.38 6.72502 8.0225 6.29002 7.085 5.55502L5.855 4.60252C5.6825 4.46752 5.4875 4.37752 5.285 4.31752C5.045 4.25002 4.79 4.22752 4.5425 4.27252H4.5275C3.605 4.43752 2.99 5.31502 3.1475 6.23002L4.16 10.67C4.37 11.735 5.2925 12.5 6.3725 12.5H11.51L14.375 14.75L15.5 13.625L11.1725 10.25Z" fill="orange"/>
</svg>
