<svg width="14" height="14" viewBox="0 0 14 14" fill="none" xmlns="http://www.w3.org/2000/svg">
  <path d="M12.25 13.75H1.75C0.921573 13.75 0.25 13.0784 0.25 12.25V1.75C0.25 0.921573 0.921573 0.25 1.75 0.25H12.25C13.0784 0.25 13.75 0.921573 13.75 1.75V12.25C13.75 13.0784 13.0784 13.75 12.25 13.75ZM1.75 1.75V12.25H12.25V1.75H1.75ZM11.5 10.75H2.5L4.75 7.75L5.5 8.5L7.75 5.5L11.5 10.75ZM4.375 6.25C3.75368 6.25 3.25 5.74632 3.25 5.125C3.25 4.50368 3.75368 4 4.375 4C4.99632 4 5.5 4.50368 5.5 5.125C5.5 5.74632 4.99632 6.25 4.375 6.25Z" fill="rgba(46,74,119,0.3)"/>
</svg>
