<svg width="14" height="17" viewBox="0 0 14 17" fill="none" xmlns="http://www.w3.org/2000/svg">
  <path d="M2.83331 4.66667C2.83331 2.36548 4.69879 0.5 6.99998 0.5C9.30116 0.5 11.1666 2.36548 11.1666 4.66667C11.1666 6.96785 9.30116 8.83333 6.99998 8.83333C4.69879 8.83333 2.83331 6.96785 2.83331 4.66667ZM6.99998 7.16667C8.38069 7.16667 9.49998 6.04738 9.49998 4.66667C9.49998 3.28595 8.38069 2.16667 6.99998 2.16667C5.61927 2.16667 4.49998 3.28595 4.49998 4.66667C4.49998 6.04738 5.61927 7.16667 6.99998 7.16667Z" fill="white"/>
  <path d="M2.28593 11.6193C1.03569 12.8695 0.333313 14.5652 0.333313 16.3333H1.99998C1.99998 15.0073 2.52676 13.7355 3.46445 12.7978C4.40213 11.8601 5.6739 11.3333 6.99998 11.3333C8.32606 11.3333 9.59783 11.8601 10.5355 12.7978C11.4732 13.7355 12 15.0073 12 16.3333H13.6666C13.6666 14.5652 12.9643 12.8695 11.714 11.6193C10.4638 10.369 8.76809 9.66667 6.99998 9.66667C5.23187 9.66667 3.53618 10.369 2.28593 11.6193Z" fill="white"/>
</svg>
