<svg width="13" height="15" viewBox="0 0 13 15" fill="none" xmlns="http://www.w3.org/2000/svg">
  <path d="M6 14.75C2.68629 14.75 0 12.0637 0 8.75C0 5.43629 2.68629 2.75 6 2.75C9.31371 2.75 12 5.43629 12 8.75C11.9963 12.0622 9.31217 14.7463 6 14.75ZM6 4.25C3.51472 4.25 1.5 6.26472 1.5 8.75C1.5 11.2353 3.51472 13.25 6 13.25C8.48528 13.25 10.5 11.2353 10.5 8.75C10.4971 6.26592 8.48408 4.25289 6 4.25ZM6.75 9.5H5.25V5.75H6.75V9.5ZM11.4698 4.78025L9.96975 3.28025L11.0302 2.21975L12.5303 3.71975L11.4705 4.7795L11.4698 4.78025ZM8.25 2H3.75V0.5H8.25V2Z" fill="#A7AFBD"/>
</svg>
